<svg width="1600" height="900" viewBox="0 0 1600 900" fill="none" xmlns="http://www.w3.org/2000/svg">
<path fill-rule="evenodd" clip-rule="evenodd" d="M1053.63 164.127C1059.91 164.127 1065.01 169.226 1065.01 175.506C1065.01 181.786 1059.91 186.884 1053.63 186.884C1047.35 186.884 1042.25 181.786 1042.25 175.506C1042.25 169.226 1047.35 164.127 1053.63 164.127Z" fill="#4B41FF"/>
<path fill-rule="evenodd" clip-rule="evenodd" d="M1053.48 164.226L1053.41 164.229L1053.34 164.23L1053.19 164.235L1053.05 164.242L1052.9 164.251L1052.76 164.261L1052.62 164.273L1052.48 164.287L1052.33 164.303L1052.19 164.32L1052.05 164.34L1051.91 164.361L1051.77 164.383L1051.63 164.407L1051.49 164.434L1051.36 164.461L1051.22 164.491L1051.08 164.522L1050.95 164.555L1050.81 164.589L1050.68 164.625L1050.54 164.663L1050.41 164.702L1050.28 164.743L1050.14 164.784L1050.01 164.829L1049.88 164.874L1049.75 164.921L1049.75 164.923L1049.62 164.969L1049.5 165.02L1049.37 165.071L1049.24 165.125L1049.12 165.179L1048.99 165.235L1048.87 165.293L1048.74 165.352L1048.62 165.412L1048.5 165.474L1048.38 165.537L1048.26 165.602L1048.14 165.667L1048.02 165.735L1047.9 165.804L1047.79 165.874L1047.67 165.946L1047.56 166.019L1047.45 166.094L1047.33 166.169L1047.22 166.245L1047.11 166.323L1047 166.403L1046.89 166.483L1046.78 166.566L1046.68 166.649L1046.57 166.734L1046.47 166.82L1046.36 166.906L1046.26 166.995L1046.16 167.083L1046.06 167.175L1045.96 167.266L1045.86 167.358L1045.76 167.454L1045.67 167.549L1045.57 167.644L1045.48 167.742L1045.39 167.841L1045.3 167.94L1045.21 168.04L1045.12 168.143L1045.03 168.245L1044.94 168.349L1044.86 168.455L1044.78 168.561L1044.69 168.668L1044.61 168.776L1044.53 168.884L1044.45 168.995L1044.38 169.106L1044.3 169.218L1044.22 169.33L1044.15 169.445L1044.08 169.56L1044.01 169.674L1043.94 169.792L1043.87 169.909L1043.8 170.028L1043.74 170.146L1043.67 170.266L1043.61 170.388L1043.55 170.51L1043.49 170.633L1043.43 170.755L1043.38 170.88L1043.32 171.004L1043.27 171.131L1043.21 171.257L1043.16 171.385L1043.14 171.457L1043.11 171.513L1043.07 171.642L1043.02 171.771L1042.98 171.902L1042.93 172.033L1042.89 172.165L1042.85 172.297L1042.81 172.43L1042.78 172.564L1042.74 172.698L1042.71 172.833L1042.68 172.968L1042.64 173.105L1042.62 173.242L1042.59 173.379L1042.56 173.517L1042.54 173.657L1042.52 173.795L1042.5 173.934L1042.48 174.075L1042.46 174.216L1042.45 174.357L1042.44 174.499L1042.42 174.641L1042.41 174.785L1042.41 174.928L1042.4 175.072L1042.4 175.216L1042.39 175.361L1042.39 175.506L1042.39 175.65L1042.4 175.795L1042.4 175.94L1042.41 176.083L1042.42 176.227L1042.43 176.37L1042.44 176.512L1042.45 176.653L1042.47 176.795L1042.49 176.935L1042.51 177.076L1042.52 177.183L1042.53 177.215L1042.55 177.355L1042.57 177.493L1042.6 177.63L1042.63 177.768L1042.66 177.904L1042.69 178.041L1042.72 178.176L1042.75 178.311L1042.79 178.445L1042.83 178.578L1042.86 178.711L1042.91 178.843L1042.95 178.974L1042.99 179.105L1043.04 179.235L1043.08 179.364L1043.13 179.492L1043.18 179.62L1043.23 179.746L1043.28 179.873L1043.34 179.998L1043.4 180.123L1043.45 180.247L1043.51 180.37L1043.57 180.492L1043.63 180.613L1043.7 180.733L1043.76 180.853L1043.83 180.972L1043.89 181.089L1043.96 181.207L1044.03 181.323L1044.1 181.438L1044.18 181.552L1044.25 181.665L1044.32 181.777L1044.4 181.889L1044.48 181.998L1044.56 182.108L1044.64 182.216L1044.72 182.324L1044.8 182.43L1044.89 182.536L1044.9 182.551L1044.97 182.64L1045.06 182.743L1045.15 182.845L1045.24 182.946L1045.33 183.047L1045.42 183.146L1045.51 183.244L1045.6 183.34L1045.7 183.435L1045.79 183.531L1045.89 183.623L1045.99 183.716L1046.09 183.807L1046.19 183.897L1046.29 183.984L1046.39 184.073L1046.5 184.159L1046.6 184.244L1046.7 184.327L1046.81 184.409L1046.92 184.492L1047.03 184.571L1047.14 184.649L1047.25 184.728L1047.36 184.803L1047.47 184.878L1047.59 184.952L1047.7 185.024L1047.81 185.094L1047.93 185.163L1048.05 185.232L1048.17 185.299L1048.29 185.364L1048.4 185.428L1048.53 185.49L1048.65 185.55L1048.77 185.61L1048.89 185.669L1049.02 185.725L1049.14 185.781L1049.27 185.835L1049.38 185.88L1049.39 185.887L1049.52 185.938L1049.65 185.987L1049.77 186.034L1049.9 186.081L1050.03 186.125L1050.16 186.168L1050.29 186.21L1050.43 186.251L1050.56 186.29L1050.69 186.326L1050.83 186.361L1050.96 186.395L1051.1 186.427L1051.23 186.457L1051.37 186.487L1051.51 186.513L1051.64 186.539L1051.78 186.562L1051.85 186.571L1051.92 186.584L1052.06 186.604L1052.2 186.624L1052.34 186.641L1052.48 186.655L1052.62 186.669L1052.76 186.681L1052.91 186.69L1053.05 186.698L1053.19 186.704L1053.34 186.71L1053.48 186.712H1053.63H1053.77L1053.92 186.71L1054.06 186.704L1054.2 186.698L1054.35 186.69L1054.49 186.68L1054.63 186.668L1054.77 186.655L1054.91 186.639L1055.05 186.624L1055.19 186.604L1055.33 186.584L1055.47 186.562L1055.61 186.538L1055.75 186.513L1055.89 186.485L1056.02 186.457L1056.16 186.427L1056.29 186.394L1056.43 186.36L1056.56 186.325L1056.69 186.288L1056.83 186.249L1056.96 186.21L1057.09 186.168L1057.22 186.125L1057.35 186.08L1057.48 186.034L1057.61 185.986L1057.74 185.936L1057.86 185.886L1057.99 185.833L1058.11 185.78L1058.24 185.724L1058.36 185.668L1058.49 185.609L1058.55 185.575L1058.61 185.549L1058.73 185.488L1058.85 185.425L1058.97 185.361L1059.09 185.296L1059.21 185.23L1059.32 185.162L1059.44 185.093L1059.55 185.021L1059.67 184.949L1059.78 184.876L1059.89 184.801L1060 184.725L1060.12 184.648L1060.22 184.568L1060.33 184.489L1060.44 184.408L1060.55 184.325L1060.65 184.241L1060.76 184.156L1060.86 184.07L1060.96 183.983L1061.06 183.894L1061.16 183.804L1061.26 183.713L1061.36 183.622L1061.46 183.528L1061.55 183.434L1061.65 183.338L1061.74 183.241L1061.84 183.143L1061.93 183.044L1062.02 182.944L1062.11 182.843L1062.19 182.742L1062.28 182.637L1062.36 182.533L1062.45 182.429L1062.53 182.322L1062.61 182.215L1062.69 182.107L1062.77 181.997L1062.85 181.886L1062.93 181.775L1063 181.663L1063.08 181.55L1063.15 181.436L1063.22 181.32L1063.29 181.204L1063.36 181.088L1063.43 180.969L1063.49 180.851L1063.56 180.732L1063.62 180.611L1063.68 180.491L1063.74 180.368L1063.8 180.246L1063.86 180.122L1063.91 179.997L1063.97 179.872L1064.02 179.745L1064.07 179.619L1064.12 179.491L1064.17 179.363L1064.21 179.234L1064.26 179.103L1064.3 178.973L1064.35 178.841L1064.39 178.71L1064.42 178.577L1064.46 178.444L1064.5 178.309L1064.53 178.175L1064.56 178.039L1064.59 177.904L1064.62 177.767L1064.65 177.63L1064.68 177.492L1064.7 177.354L1064.72 177.215L1064.74 177.076L1064.76 176.935L1064.78 176.794L1064.8 176.653L1064.81 176.511L1064.82 176.369L1064.83 176.227L1064.84 176.083L1064.85 175.94L1064.85 175.795L1064.86 175.65L1064.86 175.506L1064.86 175.361L1064.85 175.216L1064.85 175.072L1064.84 174.928L1064.84 174.785L1064.83 174.642L1064.81 174.499L1064.8 174.358L1064.79 174.216L1064.77 174.075L1064.75 173.936L1064.73 173.796L1064.71 173.657L1064.71 173.635L1064.69 173.518L1064.66 173.38L1064.63 173.242L1064.61 173.105L1064.58 172.969L1064.54 172.834L1064.51 172.698L1064.48 172.564L1064.44 172.431L1064.4 172.298L1064.36 172.165L1064.32 172.033L1064.28 171.903L1064.23 171.772L1064.19 171.643L1064.14 171.514L1064.09 171.386L1064.04 171.259L1063.99 171.132L1063.93 171.006L1063.88 170.88L1063.82 170.757L1063.76 170.634L1063.7 170.51L1063.64 170.389L1063.58 170.268L1063.51 170.148L1063.45 170.029L1063.38 169.91L1063.31 169.793L1063.24 169.677L1063.17 169.561L1063.1 169.446L1063.03 169.333L1062.95 169.219L1062.88 169.107L1062.8 168.996L1062.72 168.887L1062.64 168.777L1062.56 168.669L1062.48 168.562L1062.39 168.456L1062.31 168.351L1062.22 168.248L1062.13 168.145L1062.05 168.043L1061.96 167.941L1061.86 167.842L1061.77 167.743L1061.68 167.647L1061.58 167.55L1061.49 167.455L1061.39 167.361L1061.29 167.268L1061.19 167.176L1061.09 167.086L1060.99 166.996L1060.89 166.909L1060.79 166.821L1060.68 166.735L1060.58 166.65L1060.47 166.568L1060.36 166.486L1060.25 166.405L1060.14 166.326L1060.14 166.323L1060.03 166.247L1059.92 166.17L1059.81 166.095L1059.69 166.02L1059.58 165.947L1059.46 165.876L1059.35 165.805L1059.23 165.736L1059.11 165.67L1058.99 165.603L1058.87 165.538L1058.75 165.475L1058.63 165.413L1058.51 165.353L1058.39 165.294L1058.26 165.235L1058.14 165.179L1058.01 165.126L1057.88 165.072L1057.76 165.02L1057.63 164.971L1057.5 164.923L1057.37 164.874L1057.24 164.83L1057.11 164.786L1056.98 164.743L1056.84 164.702L1056.71 164.663L1056.58 164.625L1056.44 164.59L1056.31 164.555L1056.17 164.522L1056.04 164.491L1055.9 164.462L1055.76 164.434L1055.62 164.407L1055.48 164.384L1055.34 164.361L1055.2 164.34L1055.06 164.32L1054.92 164.303L1054.78 164.287L1054.64 164.273L1054.49 164.261L1054.35 164.251L1054.21 164.242L1054.06 164.235L1053.92 164.23L1053.84 164.229L1053.77 164.228L1053.63 164.225L1053.48 164.226ZM1053.85 164.031L1053.92 164.032L1054.07 164.036L1054.22 164.042L1054.36 164.05L1054.51 164.061L1054.66 164.072L1054.8 164.085L1054.94 164.1L1055.09 164.117L1055.23 164.136L1055.37 164.157L1055.52 164.179L1055.66 164.203L1055.8 164.229L1055.94 164.256L1056.08 164.285L1056.22 164.316L1056.36 164.349L1056.5 164.383L1056.63 164.418L1056.77 164.456L1056.91 164.495L1057.04 164.535L1057.18 164.578L1057.31 164.623L1057.44 164.668L1057.58 164.715L1057.71 164.763L1057.84 164.814L1057.97 164.865L1058.1 164.919L1058.23 164.973L1058.35 165.031L1058.48 165.088L1058.61 165.148L1058.73 165.208L1058.86 165.271L1058.98 165.335L1059.1 165.4L1059.23 165.466L1059.35 165.535L1059.47 165.605L1059.59 165.676L1059.7 165.748L1059.82 165.822L1059.94 165.897L1060.05 165.974L1060.17 166.052L1060.28 166.129L1060.28 166.13L1060.39 166.211L1060.51 166.293L1060.62 166.376L1060.73 166.46L1060.83 166.546L1060.94 166.633L1061.05 166.721L1061.15 166.811L1061.26 166.902L1061.36 166.993L1061.46 167.087L1061.56 167.181L1061.66 167.276L1061.76 167.374L1061.86 167.472L1061.95 167.571L1062.05 167.67L1062.14 167.772L1062.23 167.875L1062.33 167.978L1062.42 168.083L1062.5 168.189L1062.59 168.296L1062.68 168.403L1062.76 168.512L1062.85 168.622L1062.93 168.733L1063.01 168.845L1063.09 168.958L1063.17 169.073L1063.25 169.188L1063.32 169.304L1063.4 169.421L1063.47 169.539L1063.54 169.657L1063.61 169.777L1063.68 169.899L1063.75 170.02L1063.81 170.142L1063.88 170.266L1063.94 170.39L1064.01 170.515L1064.07 170.642L1064.12 170.77L1064.18 170.896L1064.24 171.025L1064.29 171.154L1064.34 171.285L1064.39 171.416L1064.44 171.548L1064.49 171.68L1064.54 171.814L1064.58 171.947L1064.63 172.083L1064.67 172.218L1064.71 172.354L1064.75 172.491L1064.78 172.628L1064.82 172.766L1064.85 172.906L1064.88 173.045L1064.91 173.185L1064.94 173.325L1064.97 173.468L1064.99 173.588L1064.99 173.61L1065.02 173.752L1065.04 173.895L1065.06 174.039L1065.08 174.183L1065.09 174.328L1065.11 174.474L1065.12 174.62L1065.13 174.766L1065.14 174.914L1065.14 175.061L1065.15 175.208L1065.15 175.357L1065.15 175.506L1065.15 175.654L1065.15 175.803L1065.15 175.952L1065.14 176.099L1065.13 176.245L1065.12 176.392L1065.11 176.539L1065.1 176.683L1065.08 176.829L1065.06 176.973L1065.05 177.117L1065.02 177.261L1065 177.403L1064.98 177.545L1064.95 177.687L1064.92 177.828L1064.89 177.969L1064.86 178.109L1064.83 178.248L1064.8 178.386L1064.78 178.458L1064.76 178.524L1064.72 178.661L1064.68 178.798L1064.64 178.934L1064.6 179.07L1064.56 179.204L1064.51 179.337L1064.46 179.47L1064.41 179.603L1064.36 179.733L1064.31 179.865L1064.26 179.994L1064.2 180.123L1064.14 180.252L1064.09 180.379L1064.03 180.505L1063.96 180.632L1063.9 180.757L1063.84 180.881L1063.77 181.003L1063.7 181.126L1063.64 181.247L1063.57 181.368L1063.49 181.487L1063.42 181.606L1063.35 181.723L1063.27 181.841L1063.2 181.957L1063.12 182.071L1063.04 182.185L1062.96 182.297L1062.87 182.409L1062.79 182.52L1062.7 182.629L1062.62 182.738L1062.53 182.846L1062.52 182.858L1062.44 182.953L1062.35 183.057L1062.26 183.161L1062.17 183.266L1062.08 183.368L1061.98 183.468L1061.88 183.568L1061.79 183.666L1061.69 183.764L1061.59 183.86L1061.49 183.956L1061.39 184.05L1061.28 184.142L1061.18 184.233L1061.07 184.323L1060.97 184.413L1060.86 184.501L1060.75 184.587L1060.64 184.673L1060.53 184.756L1060.42 184.838L1060.31 184.921L1060.19 185L1060.08 185.078L1059.97 185.157L1059.85 185.232L1059.73 185.307L1059.61 185.38L1059.49 185.451L1059.37 185.522L1059.25 185.591L1059.13 185.659L1059.01 185.725L1058.88 185.789L1058.76 185.853L1058.7 185.88L1058.63 185.914L1058.5 185.974L1058.38 186.033L1058.25 186.09L1058.12 186.146L1057.99 186.2L1057.86 186.252L1057.73 186.304L1057.6 186.352L1057.46 186.401L1057.33 186.448L1057.19 186.492L1057.06 186.535L1056.92 186.577L1056.79 186.616L1056.65 186.655L1056.51 186.691L1056.37 186.725L1056.23 186.759L1056.09 186.791L1055.95 186.82L1055.81 186.848L1055.67 186.875L1055.53 186.899L1055.38 186.922L1055.24 186.943L1055.1 186.963L1054.95 186.98L1054.81 186.997L1054.66 187.01L1054.51 187.023L1054.37 187.032L1054.22 187.041L1054.19 187.042L1054.07 187.047L1053.93 187.053L1053.78 187.055H1053.63H1053.48L1053.33 187.051L1053.18 187.047L1053.03 187.041L1052.89 187.032L1052.74 187.021L1052.59 187.01L1052.45 186.995L1052.3 186.98L1052.16 186.963L1052.01 186.943L1051.87 186.922L1051.79 186.909L1051.73 186.899L1051.58 186.874L1051.44 186.848L1051.3 186.819L1051.16 186.791L1051.02 186.758L1050.88 186.725L1050.74 186.69L1050.6 186.654L1050.47 186.616L1050.33 186.575L1050.19 186.534L1050.06 186.491L1049.92 186.446L1049.79 186.399L1049.66 186.352L1049.53 186.303L1049.4 186.252L1049.26 186.198L1049.25 186.192L1049.13 186.145L1049.01 186.089L1048.88 186.032L1048.75 185.973L1048.62 185.913L1048.5 185.85L1048.37 185.788L1048.25 185.723L1048.13 185.656L1048 185.59L1047.88 185.52L1047.76 185.45L1047.64 185.378L1047.52 185.304L1047.41 185.23L1047.29 185.154L1047.17 185.077L1047.06 184.998L1046.95 184.918L1046.83 184.837L1046.72 184.754L1046.61 184.67L1046.5 184.585L1046.39 184.498L1046.29 184.411L1046.18 184.322L1046.08 184.232L1045.97 184.139L1045.87 184.047L1045.77 183.953L1045.67 183.858L1045.57 183.761L1045.47 183.665L1045.37 183.566L1045.28 183.467L1045.18 183.365L1045.09 183.263L1044.99 183.16L1044.9 183.056L1044.81 182.95L1044.72 182.843L1044.65 182.753L1044.64 182.736L1044.55 182.628L1044.47 182.519L1044.38 182.408L1044.3 182.296L1044.22 182.183L1044.14 182.069L1044.06 181.954L1043.98 181.839L1043.91 181.722L1043.83 181.605L1043.76 181.486L1043.69 181.366L1043.62 181.246L1043.55 181.125L1043.49 181.002L1043.42 180.88L1043.36 180.754L1043.29 180.63L1043.23 180.504L1043.17 180.377L1043.11 180.251L1043.06 180.122L1043 179.993L1042.95 179.864L1042.9 179.732L1042.85 179.602L1042.8 179.469L1042.75 179.336L1042.7 179.203L1042.66 179.068L1042.62 178.933L1042.58 178.797L1042.53 178.66L1042.5 178.523L1042.46 178.386L1042.43 178.247L1042.39 178.109L1042.36 177.968L1042.33 177.828L1042.31 177.687L1042.28 177.545L1042.26 177.403L1042.23 177.26L1042.23 177.227L1042.21 177.116L1042.19 176.973L1042.18 176.828L1042.16 176.683L1042.15 176.539L1042.14 176.392L1042.13 176.245L1042.12 176.098L1042.11 175.95L1042.11 175.803L1042.1 175.654V175.506L1042.11 175.357L1042.11 175.208L1042.11 175.061L1042.12 174.914L1042.13 174.766L1042.14 174.62L1042.15 174.474L1042.17 174.328L1042.18 174.183L1042.2 174.04L1042.22 173.895L1042.24 173.753L1042.26 173.61L1042.29 173.468L1042.32 173.327L1042.34 173.186L1042.37 173.046L1042.41 172.907L1042.44 172.767L1042.47 172.629L1042.51 172.492L1042.55 172.355L1042.59 172.218L1042.63 172.083L1042.67 171.948L1042.72 171.814L1042.76 171.681L1042.81 171.548L1042.86 171.416L1042.91 171.286L1042.97 171.156L1043.02 171.027L1043.08 170.897L1043.13 170.77L1043.19 170.643L1043.25 170.517L1043.31 170.391L1043.38 170.268L1043.44 170.144L1043.51 170.021L1043.58 169.9L1043.64 169.779L1043.71 169.659L1043.79 169.54L1043.86 169.423L1043.93 169.305L1044.01 169.189L1044.09 169.074L1044.16 168.96L1044.25 168.848L1044.33 168.735L1044.41 168.623L1044.49 168.514L1044.58 168.405L1044.66 168.297L1044.75 168.19L1044.84 168.085L1044.93 167.979L1045.02 167.876L1045.11 167.773L1045.21 167.673L1045.3 167.572L1045.4 167.473L1045.5 167.375L1045.6 167.279L1045.69 167.182L1045.79 167.088L1045.9 166.996L1046 166.903L1046.1 166.812L1046.21 166.723L1046.32 166.635L1046.42 166.547L1046.53 166.463L1046.64 166.378L1046.75 166.294L1046.86 166.212L1046.97 166.133L1047.09 166.053L1047.2 165.975L1047.32 165.899L1047.43 165.824L1047.55 165.749L1047.67 165.678L1047.79 165.606L1047.91 165.537L1048.03 165.469L1048.15 165.401L1048.27 165.336L1048.4 165.272L1048.52 165.209L1048.65 165.149L1048.77 165.089L1048.9 165.032L1049.03 164.975L1049.16 164.92L1049.29 164.866L1049.42 164.814L1049.55 164.765L1049.68 164.715L1049.81 164.668L1049.94 164.623L1050.08 164.578L1050.21 164.537L1050.35 164.496L1050.48 164.457L1050.62 164.419L1050.76 164.383L1050.9 164.349L1051.04 164.316L1051.17 164.285L1051.31 164.256L1051.45 164.229L1051.6 164.203L1051.74 164.179L1051.88 164.157L1052.02 164.136L1052.17 164.118L1052.31 164.101L1052.45 164.085L1052.6 164.072L1052.75 164.061L1052.89 164.05L1053.04 164.042L1053.18 164.037L1053.33 164.032L1053.48 164.029H1053.63H1053.78L1053.85 164.031Z" fill="#4B41FF"/>
<path fill-rule="evenodd" clip-rule="evenodd" d="M1600.65 1040.59L700.652 1040.25L701.232 0L1599.6 0L1600.65 1040.59Z" fill="url(#paint0_linear_34_138)"/>
<g style="mix-blend-mode:overlay" opacity="0.238188">
<path fill-rule="evenodd" clip-rule="evenodd" d="M793.48 900L0.480469 899.707L0.990944 0L792.554 0L793.48 900Z" fill="url(#paint1_linear_34_138)"/>
</g>
<g style="mix-blend-mode:overlay">
<rect x="700" y="1.30371" width="900" height="104" fill="url(#paint2_linear_34_138)"/>
</g>
<g style="mix-blend-mode:overlay" opacity="0.444661">
<path fill-rule="evenodd" clip-rule="evenodd" d="M1600 878.304L700 878.304V740.304L1061.09 740.304H1600V878.304Z" fill="url(#paint3_linear_34_138)"/>
</g>
<path opacity="0.190523" fill-rule="evenodd" clip-rule="evenodd" d="M756.5 36.8482L812 20L756 3V36.6964L701 20V54V88L756 71.3036V105L812 88L756.5 71.1518L757 71L756.5 70.8482L812 54L756.5 37.1518L757 37L756.5 36.8482ZM701 54L756 37.3036V70.6964L701 54Z" fill="url(#paint4_linear_34_138)"/>
<g style="mix-blend-mode:overlay">
<rect x="701" y="276" width="92" height="622" fill="black" fill-opacity="0.152999"/>
</g>
<path opacity="0.190523" fill-rule="evenodd" clip-rule="evenodd" d="M1544 69L1488 86L1544 103V70L1600 87V53V19L1544 36V35V1L1488 18L1544 35L1488 52L1544 69ZM1544 69V36L1600 53L1544 70V69Z" fill="url(#paint5_linear_34_138)"/>
<defs>
<linearGradient id="paint0_linear_34_138" x1="1654.36" y1="521.511" x2="964.2" y2="-239.127" gradientUnits="userSpaceOnUse">
<stop stop-color="#8369F6"/>
<stop offset="1" stop-color="#3D8EF2"/>
</linearGradient>
<linearGradient id="paint1_linear_34_138" x1="840.8" y1="451.053" x2="245.061" y2="-217.834" gradientUnits="userSpaceOnUse">
<stop stop-color="#8369F6"/>
<stop offset="1" stop-color="#3D8EF2"/>
</linearGradient>
<linearGradient id="paint2_linear_34_138" x1="608.253" y1="1.30371" x2="608.253" y2="126.508" gradientUnits="userSpaceOnUse">
<stop stop-opacity="0.329901"/>
<stop offset="1" stop-opacity="0.01"/>
</linearGradient>
<linearGradient id="paint3_linear_34_138" x1="1664.68" y1="898.14" x2="1664.68" y2="740.304" gradientUnits="userSpaceOnUse">
<stop offset="0.000874126" stop-color="white" stop-opacity="0.0173733"/>
<stop offset="0.124017" stop-color="white" stop-opacity="0.329901"/>
<stop offset="1" stop-opacity="0.01"/>
</linearGradient>
<linearGradient id="paint4_linear_34_138" x1="701" y1="3" x2="701" y2="105" gradientUnits="userSpaceOnUse">
<stop/>
<stop offset="1" stop-opacity="0.233255"/>
</linearGradient>
<linearGradient id="paint5_linear_34_138" x1="1600" y1="103" x2="1600" y2="1" gradientUnits="userSpaceOnUse">
<stop stop-opacity="0.101535"/>
<stop offset="1"/>
</linearGradient>
</defs>
</svg>
