<svg width="555" height="452" viewBox="0 0 555 452" fill="none" xmlns="http://www.w3.org/2000/svg">
    <g filter="url(#filter0_d_34_80)">
        <path fill-rule="evenodd" clip-rule="evenodd" d="M263.65 25.9414C266.532 25.9414 268.869 28.2781 268.869 31.1605V40.2147C270.223 41.0657 271.123 42.5727 271.123 44.2899C271.123 46.007 270.223 47.514 268.869 48.365V61.5498C270.157 62.4129 271.004 63.8814 271.004 65.5479C271.004 67.2144 270.157 68.683 268.869 69.546V82.6121C270.223 83.4631 271.123 84.9701 271.123 86.6872C271.123 86.7251 271.122 86.7628 271.122 86.8004L271.12 86.8407L271.119 86.8878L272.473 86.7691L273.596 76.0712L281.146 76.8657L280.77 80.4444L289.458 81.5124L288.504 89.2925L290.926 89.1443L293.679 76.7615L292.304 76.4559L298.415 74.9262L298.744 73.4492L297.151 73.0989L298.022 71.3683L298.94 71.5705L300.916 62.7746L299.682 62.5016L304.744 60.5415L303.816 59.0854L304.226 57.2507L305.91 56.1797L306.369 56.2811L307.598 50.778L303.828 46.0938L302.451 45.7891L302.86 43.9545L303.574 45.0748L304.696 44.3605L305.409 45.481L306.532 44.7671L306.122 46.6013L304.745 46.2967L306.619 48.6245L307 46.7253L307.736 47.914L308.857 47.1794L309.592 48.3683L310.713 47.6337L310.354 49.4261L313.007 48.1246L311.63 47.82L312.039 45.9854L312.752 47.1057L313.875 46.3918L314.588 47.5122L315.711 46.798L315.301 48.6322L313.924 48.3279L308.516 50.9809L307.287 56.4844L307.746 56.5859L308.816 58.2662L308.406 60.1007L306.946 61.0291L310.697 64.9389L309.18 64.6031L307.206 73.3886L308.125 73.5903L308.172 75.5231L306.997 75.2645L306.664 76.7595L311.552 80.7332L310.177 80.4277L307.424 92.8105L325.39 101.588L325.797 108.453C356.332 122.775 381.174 147.269 395.961 177.566C399.573 178.208 404.859 180.724 407.016 183.442C408.582 185.416 408.785 186.39 408.409 190.135L407.969 194.518L410.69 189.259C413.577 183.681 418.586 178.543 421.962 177.699C428.323 176.108 432.898 184.398 429.926 192.127C428.27 196.43 426.519 197.132 422.921 194.935C421.482 194.055 419.519 193.323 418.604 193.323C416.733 193.323 413.079 196.59 411.475 199.697C410.361 201.856 408.942 206.183 407.597 211.285C409.731 221.275 410.854 231.639 410.854 242.263C410.854 242.626 410.852 242.99 410.85 243.352C410.851 243.584 410.852 243.816 410.853 244.047L410.853 244.27L410.854 244.441C410.854 325.903 344.816 391.941 263.354 391.941C181.892 391.941 115.854 325.903 115.854 244.441C115.854 244.078 115.855 243.715 115.857 243.352C115.855 242.99 115.854 242.626 115.854 242.263C115.854 217.025 122.191 193.257 133.357 172.469C136.509 164.572 140.553 158.159 145.105 154.018C160.47 133.42 181.074 116.965 204.933 106.638C201.549 104.092 199.36 100.04 199.36 95.4755C199.36 87.7687 205.6 81.5212 213.297 81.5212C217.465 81.5212 221.206 83.3531 223.76 86.2568L221.317 66.3345L221.955 66.2076L224.134 74.0569L224.038 54.5797L224.677 54.4859L230.299 73.5531L230.38 65.1772L231.03 65.1407L234.094 90.1309L240.137 89.6016L238.8 76.8657L246.35 76.0712L246.703 79.4336L251.569 78.9215L252.576 88.512L256.066 88.2063C255.907 87.7288 255.821 87.2181 255.821 86.6872C255.821 84.8237 256.881 83.2077 258.431 82.4091V69.8852C256.817 69.1091 255.703 67.4586 255.703 65.5479C255.703 63.6372 256.817 61.9867 258.431 61.2107V48.568C256.881 47.7694 255.821 46.1534 255.821 44.2899C255.821 42.4263 256.881 40.8103 258.431 40.0117V31.1605C258.431 28.2781 260.768 25.9414 263.65 25.9414ZM226.833 98.8157C227.095 97.7455 227.235 96.6268 227.235 95.4755C227.235 92.3867 226.232 89.5322 224.535 87.2205L222.497 70.5971L224.158 76.5804L224.798 76.4916L224.701 56.8748L230.291 75.8316L230.93 75.7426L230.984 70.1254L233.445 90.1878L227.292 90.7267L227.987 98.6738L226.833 98.8157ZM305.507 63.7904L308.261 64.3999L306.288 73.1864L303.532 72.5804L305.507 63.7904ZM301.834 62.9777L304.588 63.5872L302.614 72.3783L299.859 71.7723L301.834 62.9777ZM310.165 49.5174L306.644 48.6556L308.067 50.4005L308.251 50.4414L310.165 49.5174ZM461.354 299.941C489.244 299.941 511.854 277.332 511.854 249.441C511.854 221.551 489.244 198.941 461.354 198.941C433.463 198.941 410.854 221.551 410.854 249.441C410.854 277.332 433.463 299.941 461.354 299.941ZM45.145 169.769C49.083 161.736 58.5732 155.437 69.7335 153.448C75.3209 152.452 89.0249 153.067 97.7937 154.707C101.752 155.447 108.595 156.085 113.059 156.129C120.234 156.2 121.43 156.003 123.622 154.391C126.571 152.222 128.198 152.148 129.263 154.134C131.545 158.392 129.441 165.572 124.897 169.036C120.999 172.008 113.498 172.593 105.207 170.571C102.098 169.813 99.4877 169.352 99.3131 169.53C98.9544 169.894 94.2065 192.662 94.2065 194.018C94.2065 194.731 96.9168 194.833 104.809 194.417C114.375 193.913 115.551 193.999 116.846 195.295C118.701 197.151 117.982 200.081 114.907 203.192C112.71 205.415 112.222 205.533 102.417 206.223C96.8371 206.615 91.9967 207.194 91.7353 207.499C91.473 207.805 90.0692 214.359 88.6263 222.017C87.1834 229.675 85.633 236.444 85.1921 237.013C84.0793 238.449 79.2198 238.181 75.4731 236.476C71.567 234.7 67.4218 230.199 66.7123 226.962C66.1112 224.224 68.2086 213.561 74.9813 184.925C77.5848 173.917 79.4996 164.661 79.2557 164.265C78.6323 163.254 71.6467 164.212 68.7769 165.701C60.6889 169.897 58.4672 180.538 63.9812 188.674C65.279 190.588 66.3089 192.703 66.3137 193.46C66.3392 197.81 55.6237 198.604 49.7247 194.69C42.8667 190.14 40.7646 178.703 45.145 169.769Z" fill="white"/>
        <path d="M268.869 40.2147H257.133C257.133 44.2505 259.207 48.0032 262.624 50.1509L268.869 40.2147ZM268.869 48.365L262.624 38.4289C259.207 40.5766 257.133 44.3292 257.133 48.365H268.869ZM268.869 61.5498H257.133C257.133 65.4633 259.084 69.1193 262.335 71.2983L268.869 61.5498ZM268.869 69.546L262.335 59.7976C259.084 61.9766 257.133 65.6326 257.133 69.546H268.869ZM268.869 82.6121H257.133C257.133 86.6479 259.207 90.4005 262.624 92.5482L268.869 82.6121ZM271.122 86.8004L282.853 87.1206C282.854 87.1043 282.854 87.088 282.854 87.0717L271.122 86.8004ZM271.12 86.8407L282.849 87.2623C282.85 87.2285 282.851 87.1946 282.852 87.1608L271.12 86.8407ZM271.119 86.8878L259.39 86.4661C259.27 89.828 260.597 93.0802 263.036 95.397C265.476 97.7138 268.792 98.8725 272.143 98.5789L271.119 86.8878ZM272.473 86.7691L273.497 98.4603C279.094 97.97 283.558 93.582 284.145 87.9944L272.473 86.7691ZM273.596 76.0712L274.824 64.3997C271.728 64.074 268.63 64.9916 266.211 66.9507C263.791 68.9098 262.249 71.7499 261.924 74.846L273.596 76.0712ZM281.146 76.8657L292.818 78.091C293.495 71.646 288.819 65.8724 282.374 65.1942L281.146 76.8657ZM280.77 80.4444L269.099 79.2191C268.43 85.5846 272.986 91.3117 279.338 92.0927L280.77 80.4444ZM289.458 81.5124L301.107 82.9409C301.895 76.5089 297.322 70.6548 290.89 69.8641L289.458 81.5124ZM288.504 89.2925L276.855 87.8639C276.431 91.3247 277.567 94.7949 279.956 97.3344C282.345 99.8738 285.74 101.219 289.22 101.007L288.504 89.2925ZM290.926 89.1443L291.643 100.858C296.866 100.539 301.247 96.7996 302.383 91.6911L290.926 89.1443ZM293.679 76.7615L305.135 79.3083C305.811 76.2699 305.252 73.0876 303.581 70.4615C301.91 67.8353 299.264 65.9806 296.226 65.3052L293.679 76.7615ZM292.304 76.4559L289.455 65.0712C284.175 66.3926 280.497 71.17 280.569 76.6116C280.642 82.0532 284.445 86.7313 289.758 87.9122L292.304 76.4559ZM298.415 74.9262L301.265 86.3109C305.576 85.2319 308.907 81.8109 309.872 77.4732L298.415 74.9262ZM298.744 73.4492L310.2 75.9961C310.877 72.9533 310.315 69.7663 308.638 67.1382C306.962 64.5102 304.309 62.6569 301.265 61.9872L298.744 73.4492ZM297.151 73.0989L286.667 67.8252C285.039 71.062 284.997 74.8695 286.554 78.1413C288.111 81.4131 291.091 83.7824 294.63 84.5608L297.151 73.0989ZM298.022 71.3683L300.545 59.9068C295.304 58.7532 289.949 61.3009 287.538 66.0946L298.022 71.3683ZM298.94 71.5705L296.417 83.032C302.728 84.4211 308.975 80.4475 310.391 74.1427L298.94 71.5705ZM300.916 62.7746L312.367 65.3468C313.05 62.3036 312.495 59.1134 310.822 56.4808C309.149 53.8482 306.497 51.9897 303.452 51.3158L300.916 62.7746ZM299.682 62.5016L295.444 51.5576C290.62 53.4258 287.588 58.2324 287.98 63.3909C288.372 68.5493 292.096 72.8426 297.147 73.9603L299.682 62.5016ZM304.744 60.5415L308.982 71.4855C312.261 70.2157 314.798 67.5424 315.894 64.2014C316.991 60.8604 316.532 57.2037 314.643 54.2377L304.744 60.5415ZM303.816 59.0854L292.363 56.5271C291.683 59.5703 292.242 62.759 293.917 65.3892L303.816 59.0854ZM304.226 57.2507L297.928 47.3479C295.305 49.0165 293.45 51.658 292.773 54.6924L304.226 57.2507ZM305.91 56.1797L308.444 44.7205C305.41 44.0497 302.234 44.6094 299.612 46.2769L305.91 56.1797ZM306.369 56.2811L303.836 67.7404C310.155 69.1375 316.412 65.1552 317.823 58.8388L306.369 56.2811ZM307.598 50.778L319.052 53.3357C319.83 49.8507 318.979 46.201 316.74 43.4193L307.598 50.778ZM303.828 46.0938L312.97 38.7351C311.298 36.6575 308.968 35.2115 306.364 34.6351L303.828 46.0938ZM302.451 45.7891L290.997 43.2328C290.318 46.2741 290.877 49.4605 292.549 52.0895C294.222 54.7185 296.872 56.5743 299.915 57.2477L302.451 45.7891ZM302.86 43.9545L312.76 37.6517C310.212 33.6496 305.505 31.5752 300.832 32.3951C296.159 33.215 292.439 36.7678 291.406 41.3982L302.86 43.9545ZM303.574 45.0748L293.674 51.3776C297.154 56.8439 304.406 58.4551 309.873 54.9767L303.574 45.0748ZM304.696 44.3605L314.598 38.0605C311.118 32.5921 303.865 30.9796 298.397 34.4587L304.696 44.3605ZM305.409 45.481L295.508 51.781C298.986 57.2483 306.238 58.8615 311.706 55.3845L305.409 45.481ZM306.532 44.7671L317.986 47.3245C319.02 42.6905 317.161 37.8897 313.275 35.1616C309.389 32.4336 304.242 32.3159 300.235 34.8635L306.532 44.7671ZM306.122 46.6013L303.588 58.0602C309.907 59.4581 316.166 55.4756 317.576 49.1587L306.122 46.6013ZM304.745 46.2967L307.28 34.8377C302.415 33.7615 297.4 35.875 294.773 40.109C292.146 44.343 292.479 49.7744 295.603 53.6559L304.745 46.2967ZM306.619 48.6245L297.477 55.9837C300.333 59.5314 304.984 61.1065 309.408 60.0244C313.831 58.9423 317.23 55.3984 318.126 50.9331L306.619 48.6245ZM307 46.7253L316.981 40.5508C314.446 36.4534 309.664 34.3216 304.922 35.1748C300.18 36.028 296.441 39.6927 295.494 44.4167L307 46.7253ZM307.736 47.914L297.755 54.0885C299.421 56.7805 302.103 58.6856 305.193 59.3713C308.284 60.057 311.52 59.4653 314.168 57.7304L307.736 47.914ZM308.857 47.1794L318.839 41.0074C317.174 38.3146 314.491 36.4087 311.401 35.7225C308.31 35.0362 305.073 35.6279 302.425 37.3631L308.857 47.1794ZM309.592 48.3683L299.61 54.5403C301.275 57.2331 303.957 59.139 307.048 59.8252C310.139 60.5115 313.376 59.9198 316.024 58.1847L309.592 48.3683ZM310.713 47.6337L322.22 49.9413C323.15 45.3028 321.204 40.5593 317.285 37.9102C313.365 35.2611 308.238 35.2245 304.281 37.8173L310.713 47.6337ZM310.354 49.4261L298.847 47.1185C297.968 51.4987 299.653 55.9978 303.192 58.7239C306.732 61.4499 311.512 61.9301 315.523 59.9624L310.354 49.4261ZM313.007 48.1246L318.176 58.6609C322.652 56.4648 325.252 51.6798 324.659 46.729C324.066 41.7782 320.41 37.7426 315.541 36.6657L313.007 48.1246ZM311.63 47.82L300.175 45.2638C299.497 48.3053 300.055 51.492 301.729 54.1211C303.402 56.7502 306.052 58.6059 309.095 59.279L311.63 47.82ZM312.039 45.9854L321.939 39.6826C319.391 35.6805 314.684 33.6062 310.011 34.4261C305.338 35.2459 301.618 38.7987 300.585 43.4292L312.039 45.9854ZM312.752 47.1057L302.852 53.4086C306.332 58.8739 313.582 60.4856 319.049 57.0092L312.752 47.1057ZM313.875 46.3918L323.775 40.089C320.295 34.6237 313.045 33.012 307.578 36.4883L313.875 46.3918ZM314.588 47.5122L304.688 53.815C308.169 59.2816 315.421 60.8926 320.889 57.4135L314.588 47.5122ZM315.711 46.798L327.164 49.3553C328.199 44.7206 326.339 39.9191 322.452 37.1913C318.565 34.4636 313.417 34.3473 309.41 36.8966L315.711 46.798ZM315.301 48.6322L312.767 60.0914C319.087 61.4886 325.345 57.5061 326.755 51.1895L315.301 48.6322ZM313.924 48.3279L316.458 36.8687C313.86 36.2943 311.145 36.6196 308.756 37.7912L313.924 48.3279ZM308.516 50.9809L303.347 40.4443C300.15 42.0127 297.838 44.948 297.062 48.4237L308.516 50.9809ZM307.287 56.4844L295.833 53.9271C295.154 56.969 295.713 60.1561 297.386 62.7855C299.059 65.415 301.71 67.2707 304.753 67.9436L307.287 56.4844ZM307.746 56.5859L317.645 50.2828C315.972 47.6544 313.322 45.7994 310.279 45.1267L307.746 56.5859ZM308.816 58.2662L320.27 60.8224C320.949 57.7801 320.389 54.5926 318.715 51.9631L308.816 58.2662ZM308.406 60.1007L314.704 70.0036C317.328 68.3346 319.183 65.6923 319.86 62.657L308.406 60.1007ZM306.946 61.0291L300.648 51.1262C297.68 53.014 295.715 56.1336 295.295 59.626C294.874 63.1183 296.042 66.6152 298.477 69.1536L306.946 61.0291ZM310.697 64.9389L308.162 76.3977C313.21 77.5149 318.395 75.1961 320.928 70.6882C323.462 66.1804 322.746 60.5458 319.166 56.8144L310.697 64.9389ZM309.18 64.6031L311.715 53.1443C305.401 51.7471 299.146 55.7213 297.729 62.0311L309.18 64.6031ZM307.206 73.3886L295.756 70.8166C295.071 73.863 295.629 77.0566 297.306 79.6906C298.982 82.3246 301.64 84.1819 304.689 84.8515L307.206 73.3886ZM308.125 73.5903L319.857 73.3019C319.724 67.8996 315.92 63.2863 310.642 62.1274L308.125 73.5903ZM308.172 75.5231L305.651 86.985C309.173 87.7597 312.855 86.8724 315.637 84.5787C318.42 82.285 319.993 78.8395 319.905 75.2347L308.172 75.5231ZM306.997 75.2645L309.518 63.8026C303.197 62.4123 296.944 66.401 295.54 72.7187L306.997 75.2645ZM306.664 76.7595L295.208 74.2137C294.244 78.5519 295.813 83.0625 299.261 85.8658L306.664 76.7595ZM311.552 80.7332L309.007 92.1898C314.32 93.37 319.747 90.7431 322.117 85.8443C324.487 80.9454 323.178 75.0598 318.955 71.6269L311.552 80.7332ZM310.177 80.4277L312.722 68.971C306.396 67.5656 300.127 71.5544 298.721 77.8809L310.177 80.4277ZM307.424 92.8105L295.968 90.2637C294.791 95.5601 297.397 100.973 302.272 103.355L307.424 92.8105ZM325.39 101.588L337.105 100.893C336.854 96.6663 334.346 92.9026 330.542 91.0439L325.39 101.588ZM325.797 108.453L314.082 109.149C314.337 113.442 316.92 117.252 320.813 119.078L325.797 108.453ZM395.961 177.566L385.414 182.713C387.059 186.083 390.214 188.463 393.905 189.12L395.961 177.566ZM407.016 183.442L416.21 176.148L416.209 176.147L407.016 183.442ZM408.409 190.135L396.732 188.964L396.732 188.964L408.409 190.135ZM407.969 194.518L396.292 193.346C395.73 198.951 399.228 204.164 404.628 205.768C410.027 207.372 415.805 204.913 418.393 199.911L407.969 194.518ZM410.69 189.259L400.267 183.865L400.267 183.866L410.69 189.259ZM421.962 177.699L424.808 189.085L424.81 189.084L421.962 177.699ZM429.926 192.127L440.879 196.341L440.879 196.34L429.926 192.127ZM422.921 194.935L416.801 204.948L416.804 204.95L422.921 194.935ZM411.475 199.697L401.047 194.313L401.046 194.314L411.475 199.697ZM407.597 211.285L396.249 208.292C395.78 210.072 395.736 211.936 396.12 213.736L407.597 211.285ZM410.85 243.352L399.114 243.267C399.114 243.324 399.114 243.381 399.114 243.437L410.85 243.352ZM410.853 244.047L422.589 244.025L422.589 244.016L410.853 244.047ZM410.853 244.27L422.589 244.263C422.589 244.258 422.589 244.252 422.589 244.247L410.853 244.27ZM410.854 244.441L422.589 244.441L422.589 244.435L410.854 244.441ZM115.857 243.352L127.593 243.437C127.593 243.381 127.593 243.324 127.593 243.267L115.857 243.352ZM133.357 172.469L143.696 178.022C143.905 177.632 144.093 177.23 144.257 176.819L133.357 172.469ZM145.105 154.018L153.002 162.699C153.558 162.194 154.063 161.637 154.512 161.035L145.105 154.018ZM204.933 106.638L209.594 117.409C213.43 115.748 216.093 112.173 216.587 108.023C217.08 103.873 215.328 99.773 211.988 97.2601L204.933 106.638ZM223.76 86.2568L214.948 94.008C218.348 97.8726 223.869 99.0712 228.564 96.9644C233.26 94.8575 236.036 89.9368 235.409 84.8282L223.76 86.2568ZM221.317 66.3345L219.027 54.8242C213.002 56.0231 208.921 61.6655 209.669 67.7631L221.317 66.3345ZM221.955 66.2076L233.263 63.0682C231.62 57.1489 225.69 53.4985 219.665 54.6973L221.955 66.2076ZM224.134 74.0569L212.826 77.1963C214.399 82.8624 219.922 86.4896 225.747 85.6815C231.571 84.8734 235.899 79.8793 235.87 73.999L224.134 74.0569ZM224.038 54.5797L222.332 42.9683C216.55 43.8177 212.273 48.7928 212.302 54.6376L224.038 54.5797ZM224.677 54.4859L235.933 51.1666C234.28 45.5605 228.754 42.0252 222.971 42.8745L224.677 54.4859ZM230.299 73.5531L219.042 76.8724C220.686 82.4473 226.163 85.9792 231.919 85.1767C237.676 84.3742 241.978 79.479 242.034 73.6671L230.299 73.5531ZM230.38 65.1772L229.722 53.4598C223.55 53.8067 218.705 58.8818 218.645 65.0633L230.38 65.1772ZM231.03 65.1407L242.678 63.7122C241.926 57.5764 236.543 53.0763 230.371 53.4233L231.03 65.1407ZM234.094 90.1309L222.446 91.5594C223.216 97.8357 228.819 102.374 235.119 101.822L234.094 90.1309ZM240.137 89.6016L241.161 101.293C244.296 101.018 247.19 99.4954 249.192 97.0667C251.195 94.6379 252.137 91.5067 251.809 88.3763L240.137 89.6016ZM238.8 76.8657L237.572 65.1942C231.127 65.8724 226.451 71.646 227.128 78.091L238.8 76.8657ZM246.35 76.0712L258.021 74.846C257.696 71.7499 256.155 68.9098 253.735 66.9507C251.316 64.9916 248.217 64.074 245.121 64.3997L246.35 76.0712ZM246.703 79.4336L235.031 80.6588C235.356 83.7549 236.898 86.595 239.317 88.5541C241.736 90.5132 244.835 91.4309 247.931 91.1051L246.703 79.4336ZM251.569 78.9215L263.241 77.6962C262.916 74.6002 261.374 71.7601 258.954 69.801C256.535 67.8418 253.437 66.9242 250.341 67.25L251.569 78.9215ZM252.576 88.512L240.904 89.7373C241.572 96.1051 247.221 100.762 253.6 100.203L252.576 88.512ZM256.066 88.2063L257.09 99.8975C260.667 99.5841 263.904 97.6505 265.875 94.6493C267.847 91.6481 268.336 87.9096 267.202 84.5024L256.066 88.2063ZM258.431 82.4091L263.807 92.8413C267.713 90.8286 270.167 86.8028 270.167 82.4091H258.431ZM258.431 69.8852H270.167C270.167 65.3745 267.582 61.2629 263.516 59.3083L258.431 69.8852ZM258.431 61.2107L263.516 71.7875C267.582 69.8329 270.167 65.7214 270.167 61.2107H258.431ZM258.431 48.568H270.167C270.167 44.1743 267.713 40.1485 263.807 38.1358L258.431 48.568ZM258.431 40.0117L263.807 50.4439C267.713 48.4312 270.167 44.4054 270.167 40.0117H258.431ZM226.833 98.8157L215.435 96.0191C214.516 99.7658 215.496 103.725 218.058 106.609C220.62 109.494 224.436 110.935 228.265 110.464L226.833 98.8157ZM224.535 87.2205L212.887 88.649C213.132 90.6447 213.885 92.544 215.075 94.1649L224.535 87.2205ZM222.497 70.5971L233.805 67.4577C232.162 61.5383 226.232 57.8879 220.207 59.0868C214.181 60.2856 210.1 65.9281 210.848 72.0256L222.497 70.5971ZM224.158 76.5804L212.85 79.7198C214.423 85.3859 219.946 89.0131 225.771 88.205L224.158 76.5804ZM224.798 76.4916L226.411 88.1162C232.235 87.308 236.563 82.314 236.534 76.4336L224.798 76.4916ZM224.701 56.8748L235.958 53.5555C234.305 47.9493 228.778 44.414 222.996 45.2634C217.213 46.1128 212.937 51.0879 212.965 56.9327L224.701 56.8748ZM230.291 75.8316L219.034 79.1509C220.678 84.7258 226.155 88.2576 231.911 87.4551L230.291 75.8316ZM230.93 75.7426L232.55 87.3661C238.307 86.5636 242.609 81.6685 242.665 75.8565L230.93 75.7426ZM230.984 70.1254L242.633 68.6968C241.88 62.5611 236.497 58.061 230.325 58.4079C224.154 58.7549 219.309 63.83 219.249 70.0114L230.984 70.1254ZM233.445 90.1878L234.469 101.879C237.64 101.601 240.562 100.047 242.565 97.5737C244.568 95.1 245.481 91.9187 245.093 88.7593L233.445 90.1878ZM227.292 90.7267L226.268 79.0355C219.812 79.6011 215.037 85.2923 215.601 91.7484L227.292 90.7267ZM227.987 98.6738L229.419 110.322C235.693 109.551 240.228 103.949 239.678 97.6522L227.987 98.6738ZM308.261 64.3999L319.712 66.9718C320.395 63.9286 319.839 60.7385 318.167 58.1059C316.494 55.4734 313.842 53.615 310.797 52.9411L308.261 64.3999ZM305.507 63.7904L308.043 52.3316C301.728 50.9345 295.474 54.9085 294.056 61.2182L305.507 63.7904ZM306.288 73.1864L303.767 84.6484C310.077 86.0363 316.322 82.0625 317.738 75.7583L306.288 73.1864ZM303.532 72.5804L292.082 70.0082C291.398 73.054 291.955 76.2468 293.631 78.8806C295.307 81.5143 297.963 83.3719 301.011 84.0424L303.532 72.5804ZM304.588 63.5872L316.039 66.159C316.723 63.1158 316.167 59.9257 314.494 57.2932C312.821 54.6607 310.169 52.8023 307.124 52.1284L304.588 63.5872ZM301.834 62.9777L304.37 51.5189C298.056 50.1217 291.801 54.0957 290.384 60.4054L301.834 62.9777ZM302.614 72.3783L300.093 83.8403C306.404 85.2281 312.649 81.2543 314.065 74.9501L302.614 72.3783ZM299.859 71.7723L288.408 69.2C287.724 72.2458 288.281 75.4387 289.957 78.0724C291.633 80.7062 294.289 82.5637 297.338 83.2343L299.859 71.7723ZM306.644 48.6556L309.435 37.2562C304.535 36.0569 299.416 38.1231 296.722 42.388C294.028 46.6529 294.361 52.1624 297.549 56.072L306.644 48.6556ZM310.165 49.5174L315.267 60.0867C319.726 57.9343 322.355 53.2143 321.837 48.2895C321.319 43.3648 317.765 39.2952 312.955 38.1179L310.165 49.5174ZM308.067 50.4005L298.972 57.8169C300.639 59.8618 302.947 61.2852 305.523 61.8573L308.067 50.4005ZM308.251 50.4414L305.706 61.8981C308.282 62.4703 310.976 62.1576 313.352 61.0107L308.251 50.4414ZM69.7335 153.448L71.7923 165.002L71.7937 165.002L69.7335 153.448ZM45.145 169.769L55.6825 174.936L55.6827 174.935L45.145 169.769ZM97.7937 154.707L95.6361 166.243L95.6365 166.243L97.7937 154.707ZM113.059 156.129L113.176 144.393L113.175 144.393L113.059 156.129ZM123.622 154.391L130.574 163.846L130.576 163.845L123.622 154.391ZM129.263 154.134L139.607 148.591L139.606 148.589L129.263 154.134ZM124.897 169.036L117.782 159.703L117.782 159.703L124.897 169.036ZM105.207 170.571L102.425 181.973L102.427 181.973L105.207 170.571ZM99.3131 169.53L107.678 177.761C107.682 177.758 107.685 177.754 107.689 177.75L99.3131 169.53ZM104.809 194.417L105.426 206.137L105.426 206.137L104.809 194.417ZM116.846 195.295L125.147 186.999L125.147 186.999L116.846 195.295ZM114.907 203.192L106.56 194.942L106.56 194.942L114.907 203.192ZM102.417 206.223L103.241 217.93L103.241 217.93L102.417 206.223ZM91.7353 207.499L100.65 215.132L100.652 215.13L91.7353 207.499ZM88.6263 222.017L100.159 224.19L100.159 224.19L88.6263 222.017ZM85.1921 237.013L75.9163 229.824L75.9161 229.824L85.1921 237.013ZM75.4731 236.476L80.3333 225.794L80.3316 225.793L75.4731 236.476ZM66.7123 226.962L78.176 224.449L78.1754 224.446L66.7123 226.962ZM74.9813 184.925L63.5604 182.224L63.5604 182.224L74.9813 184.925ZM79.2557 164.265L89.251 158.115L89.2443 158.104L79.2557 164.265ZM68.7769 165.701L74.182 176.118L74.1827 176.118L68.7769 165.701ZM63.9812 188.674L54.2661 195.258L54.2669 195.259L63.9812 188.674ZM66.3137 193.46L78.0494 193.391L78.0494 193.386L66.3137 193.46ZM49.7247 194.69L56.2134 184.911L56.2129 184.911L49.7247 194.69ZM280.605 31.1605C280.605 21.7965 273.014 14.2055 263.65 14.2055V37.6773C260.051 37.6773 257.133 34.7597 257.133 31.1605H280.605ZM280.605 40.2147V31.1605H257.133V40.2147H280.605ZM282.859 44.2899C282.859 38.3699 279.742 33.1869 275.115 30.2786L262.624 50.1509C260.705 48.9446 259.387 46.7755 259.387 44.2899H282.859ZM275.115 58.3011C279.742 55.3928 282.859 50.2098 282.859 44.2899H259.387C259.387 41.8042 260.705 39.6352 262.624 38.4289L275.115 58.3011ZM280.605 61.5498V48.365H257.133V61.5498H280.605ZM282.74 65.5479C282.74 59.804 279.803 54.7505 275.404 51.8013L262.335 71.2983C260.51 70.0752 259.268 67.9588 259.268 65.5479H282.74ZM275.404 79.2945C279.803 76.3453 282.74 71.2918 282.74 65.5479H259.268C259.268 63.137 260.51 61.0206 262.335 59.7976L275.404 79.2945ZM280.605 82.6121V69.546H257.133V82.6121H280.605ZM282.859 86.6872C282.859 80.7673 279.742 75.5843 275.115 72.676L262.624 92.5482C260.705 91.3419 259.387 89.1729 259.387 86.6872H282.859ZM282.854 87.0717C282.857 86.9448 282.859 86.8166 282.859 86.6872H259.387C259.387 86.6335 259.388 86.5808 259.389 86.5291L282.854 87.0717ZM282.852 87.1608L282.853 87.1206L259.39 86.4802L259.389 86.5205L282.852 87.1608ZM282.847 87.3094L282.849 87.2623L259.392 86.419L259.39 86.4661L282.847 87.3094ZM271.449 75.078L270.095 75.1966L272.143 98.5789L273.497 98.4603L271.449 75.078ZM261.924 74.846L260.801 85.5439L284.145 87.9944L285.268 77.2965L261.924 74.846ZM282.374 65.1942L274.824 64.3997L272.368 87.7427L279.918 88.5372L282.374 65.1942ZM292.442 81.6697L292.818 78.091L269.474 75.6404L269.099 79.2191L292.442 81.6697ZM290.89 69.8641L282.202 68.7962L279.338 92.0927L288.026 93.1606L290.89 69.8641ZM300.152 90.721L301.107 82.9409L277.809 80.0838L276.855 87.8639L300.152 90.721ZM290.21 77.4303L287.787 77.5784L289.22 101.007L291.643 100.858L290.21 77.4303ZM282.223 74.2147L279.47 86.5975L302.383 91.6911L305.135 79.3083L282.223 74.2147ZM289.758 87.9122L291.132 88.2178L296.226 65.3052L294.851 64.9996L289.758 87.9122ZM295.566 63.5415L289.455 65.0712L295.154 87.8406L301.265 86.3109L295.566 63.5415ZM287.288 70.9022L286.959 72.3793L309.872 77.4732L310.2 75.9961L287.288 70.9022ZM294.63 84.5608L296.223 84.9111L301.265 61.9872L299.673 61.637L294.63 84.5608ZM287.538 66.0946L286.667 67.8252L307.636 78.3726L308.506 76.642L287.538 66.0946ZM301.463 60.1089L300.545 59.9068L295.499 82.8299L296.417 83.032L301.463 60.1089ZM289.466 60.2023L287.49 68.9982L310.391 74.1427L312.367 65.3468L289.466 60.2023ZM297.147 73.9603L298.381 74.2333L303.452 51.3158L302.218 51.0428L297.147 73.9603ZM300.506 49.5976L295.444 51.5576L303.921 73.4455L308.982 71.4855L300.506 49.5976ZM293.917 65.3892L294.845 66.8454L314.643 54.2377L313.716 52.7815L293.917 65.3892ZM292.773 54.6924L292.363 56.5271L315.27 61.6436L315.68 59.809L292.773 54.6924ZM299.612 46.2769L297.928 47.3479L310.524 67.1535L312.208 66.0825L299.612 46.2769ZM308.903 44.8219L308.444 44.7205L303.377 67.6389L303.836 67.7404L308.903 44.8219ZM296.144 48.2204L294.915 53.7235L317.823 58.8388L319.052 53.3357L296.144 48.2204ZM294.685 53.4525L298.456 58.1367L316.74 43.4193L312.97 38.7351L294.685 53.4525ZM299.915 57.2477L301.291 57.5524L306.364 34.6351L304.987 34.3304L299.915 57.2477ZM291.406 41.3982L290.997 43.2328L313.905 48.3453L314.314 46.5107L291.406 41.3982ZM313.473 38.772L312.76 37.6517L292.96 50.2573L293.674 51.3776L313.473 38.772ZM298.397 34.4587L297.274 35.1729L309.873 54.9767L310.996 54.2624L298.397 34.4587ZM315.311 39.1809L314.598 38.0605L294.795 50.6606L295.508 51.781L315.311 39.1809ZM300.235 34.8635L299.112 35.5774L311.706 55.3845L312.829 54.6706L300.235 34.8635ZM317.576 49.1587L317.986 47.3245L295.078 42.2096L294.668 44.0438L317.576 49.1587ZM302.211 57.7556L303.588 58.0602L308.657 35.1423L307.28 34.8377L302.211 57.7556ZM315.761 41.2653L313.887 38.9374L295.603 53.6559L297.477 55.9837L315.761 41.2653ZM295.494 44.4167L295.113 46.3159L318.126 50.9331L318.507 49.0339L295.494 44.4167ZM317.716 41.7396L316.981 40.5508L297.02 52.8998L297.755 54.0885L317.716 41.7396ZM302.425 37.3631L301.304 38.0977L314.168 57.7304L315.289 56.9958L302.425 37.3631ZM319.574 42.1963L318.839 41.0074L298.875 53.3515L299.61 54.5403L319.574 42.1963ZM304.281 37.8173L303.16 38.5519L316.024 58.1847L317.145 57.45L304.281 37.8173ZM321.86 51.7338L322.22 49.9413L299.206 45.326L298.847 47.1185L321.86 51.7338ZM307.838 37.5883L305.185 38.8898L315.523 59.9624L318.176 58.6609L307.838 37.5883ZM309.095 59.279L310.472 59.5836L315.541 36.6657L314.164 36.3611L309.095 59.279ZM300.585 43.4292L300.175 45.2638L323.084 50.3762L323.493 48.5417L300.585 43.4292ZM322.652 40.8029L321.939 39.6826L302.139 52.2882L302.852 53.4086L322.652 40.8029ZM307.578 36.4883L306.455 37.2023L319.049 57.0092L320.172 56.2953L307.578 36.4883ZM324.488 41.2093L323.775 40.089L303.975 52.6947L304.688 53.815L324.488 41.2093ZM309.41 36.8966L308.288 37.6108L320.889 57.4135L322.011 56.6994L309.41 36.8966ZM326.755 51.1895L327.164 49.3553L304.257 44.2408L303.847 46.075L326.755 51.1895ZM311.391 59.7871L312.767 60.0914L317.835 37.173L316.458 36.8687L311.391 59.7871ZM313.684 61.5176L319.093 58.8645L308.756 37.7912L303.347 40.4443L313.684 61.5176ZM318.741 59.0417L319.97 53.5382L297.062 48.4237L295.833 53.9271L318.741 59.0417ZM310.279 45.1267L309.821 45.0252L304.753 67.9436L305.212 68.0451L310.279 45.1267ZM318.715 51.9631L317.645 50.2828L297.846 62.8889L298.916 64.5692L318.715 51.9631ZM319.86 62.657L320.27 60.8224L297.361 55.7099L296.952 57.5445L319.86 62.657ZM313.245 70.932L314.704 70.0036L302.108 50.1979L300.648 51.1262L313.245 70.932ZM319.166 56.8144L315.415 52.9046L298.477 69.1536L302.228 73.0635L319.166 56.8144ZM306.644 76.0618L308.162 76.3977L313.233 53.4802L311.715 53.1443L306.644 76.0618ZM318.657 75.9606L320.63 67.1751L297.729 62.0311L295.756 70.8166L318.657 75.9606ZM310.642 62.1274L309.723 61.9257L304.689 84.8515L305.608 85.0532L310.642 62.1274ZM319.905 75.2347L319.857 73.3019L296.392 73.8787L296.44 75.8115L319.905 75.2347ZM304.475 86.7264L305.651 86.985L310.694 64.0612L309.518 63.8026L304.475 86.7264ZM318.121 79.3054L318.453 77.8104L295.54 72.7187L295.208 74.2137L318.121 79.3054ZM318.955 71.6269L314.068 67.6532L299.261 85.8658L304.149 89.8395L318.955 71.6269ZM307.632 91.8844L309.007 92.1898L314.097 69.2765L312.722 68.971L307.632 91.8844ZM318.881 95.3574L321.633 82.9745L298.721 77.8809L295.968 90.2637L318.881 95.3574ZM330.542 91.0439L312.576 82.266L302.272 103.355L320.237 112.133L330.542 91.0439ZM337.512 107.758L337.105 100.893L313.674 102.284L314.082 109.149L337.512 107.758ZM406.508 172.418C390.548 139.719 363.745 113.29 330.781 97.8281L320.813 119.078C348.918 132.261 371.8 154.819 385.414 182.713L406.508 172.418ZM416.209 176.147C413.623 172.888 410.063 170.656 407.395 169.286C404.554 167.827 401.214 166.58 398.017 166.011L393.905 189.12C394.041 189.144 394.413 189.23 394.978 189.431C395.523 189.625 396.112 189.878 396.672 190.165C397.241 190.457 397.67 190.729 397.94 190.927C398.253 191.156 398.129 191.123 397.822 190.737L416.209 176.147ZM420.087 191.307C420.265 189.529 420.543 186.674 419.93 183.732C419.182 180.137 417.431 177.688 416.21 176.148L397.821 190.736C398.034 191.004 397.875 190.838 397.647 190.419C397.52 190.187 397.378 189.891 397.248 189.54C397.116 189.188 397.019 188.842 396.951 188.517C396.82 187.889 396.837 187.508 396.836 187.618C396.834 187.759 396.816 188.127 396.732 188.964L420.087 191.307ZM419.647 195.69L420.087 191.307L396.732 188.964L396.292 193.346L419.647 195.69ZM400.267 183.866L397.546 189.125L418.393 199.911L421.114 194.652L400.267 183.866ZM419.116 166.314C414.168 167.55 410.175 171.013 407.74 173.511C404.926 176.397 402.261 180.013 400.267 183.865L421.113 194.653C422.006 192.927 423.289 191.185 424.545 189.897C425.162 189.264 425.63 188.888 425.879 188.715C426.223 188.476 425.848 188.825 424.808 189.085L419.116 166.314ZM440.879 196.34C443.555 189.384 443.032 181.75 439.719 175.747C436.33 169.607 428.825 163.885 419.114 166.314L424.81 189.084C423.563 189.396 422.079 189.234 420.829 188.574C419.728 187.993 419.28 187.29 419.169 187.089C418.991 186.766 419.269 187.142 418.972 187.914L440.879 196.34ZM416.804 204.95C418.922 206.244 424.767 209.568 431.518 206.862C437.7 204.385 440.034 198.538 440.879 196.341L418.972 187.914C418.726 188.553 418.723 188.384 419.078 187.885C419.474 187.328 420.621 185.943 422.786 185.075C425.06 184.164 427.075 184.371 428.178 184.65C429.097 184.883 429.457 185.175 429.039 184.919L416.804 204.95ZM418.604 205.059C417.976 205.059 417.5 204.999 417.242 204.96C416.965 204.919 416.766 204.873 416.661 204.848C416.461 204.799 416.395 204.769 416.462 204.794C416.514 204.813 416.598 204.848 416.689 204.892C416.783 204.937 416.823 204.962 416.801 204.948L429.042 184.921C427.613 184.048 426.076 183.328 424.67 182.804C423.661 182.427 421.283 181.587 418.604 181.587V205.059ZM421.902 205.082C421.876 205.134 421.942 205.002 422.15 204.742C422.349 204.495 422.572 204.263 422.762 204.093C422.983 203.896 422.976 203.944 422.681 204.11C422.525 204.198 422.153 204.395 421.586 204.586C421.056 204.766 420.011 205.059 418.604 205.059V181.587C415.141 181.587 412.443 182.938 411.171 183.654C409.615 184.529 408.244 185.588 407.116 186.596C404.928 188.554 402.631 191.245 401.047 194.313L421.902 205.082ZM418.945 214.277C420.295 209.158 421.444 205.97 421.903 205.081L401.046 194.314C399.277 197.741 397.59 203.208 396.249 208.292L418.945 214.277ZM422.589 242.263C422.589 230.81 421.379 219.625 419.074 208.834L396.12 213.736C398.082 222.926 399.118 232.468 399.118 242.263H422.589ZM422.585 243.437C422.588 243.046 422.589 242.655 422.589 242.263H399.118C399.118 242.598 399.116 242.933 399.114 243.267L422.585 243.437ZM422.589 244.016C422.588 243.767 422.587 243.517 422.585 243.267L399.114 243.437C399.115 243.65 399.117 243.864 399.117 244.078L422.589 244.016ZM422.589 244.247L422.589 244.025L399.117 244.07L399.118 244.292L422.589 244.247ZM422.589 244.435L422.589 244.263L399.117 244.276L399.118 244.448L422.589 244.435ZM263.354 403.677C351.297 403.677 422.589 332.385 422.589 244.441H399.118C399.118 319.422 338.334 380.205 263.354 380.205V403.677ZM104.118 244.441C104.118 332.385 175.41 403.677 263.354 403.677V380.205C188.373 380.205 127.589 319.422 127.589 244.441H104.118ZM104.122 243.267C104.119 243.659 104.118 244.05 104.118 244.441H127.589C127.589 244.106 127.591 243.772 127.593 243.437L104.122 243.267ZM104.118 242.263C104.118 242.655 104.119 243.046 104.122 243.437L127.593 243.267C127.591 242.933 127.589 242.598 127.589 242.263H104.118ZM123.018 166.915C110.958 189.367 104.118 215.038 104.118 242.263H127.589C127.589 219.012 133.423 197.147 143.696 178.022L123.018 166.915ZM137.208 145.337C130.903 151.072 126.007 159.223 122.457 168.118L144.257 176.819C147.01 169.921 150.204 165.245 153.002 162.699L137.208 145.337ZM200.271 95.868C174.505 107.02 152.273 124.781 135.698 147.001L154.512 161.035C168.667 142.06 187.643 126.91 209.594 117.409L200.271 95.868ZM187.624 95.4755C187.624 103.88 191.67 111.347 197.877 116.017L211.988 97.2601C211.427 96.8378 211.096 96.1994 211.096 95.4755H187.624ZM213.297 69.7852C199.105 69.7852 187.624 81.3005 187.624 95.4755H211.096C211.096 94.237 212.095 93.2571 213.297 93.2571V69.7852ZM232.572 78.5055C227.887 73.1785 220.982 69.7852 213.297 69.7852V93.2571C213.949 93.2571 214.526 93.5278 214.948 94.008L232.572 78.5055ZM209.669 67.7631L212.112 87.6853L235.409 84.8282L232.966 64.906L209.669 67.7631ZM219.665 54.6973L219.027 54.8242L223.608 77.8448L224.245 77.7179L219.665 54.6973ZM235.442 70.9175L233.263 63.0682L210.647 69.347L212.826 77.1963L235.442 70.9175ZM212.302 54.6376L212.398 74.1148L235.87 73.999L235.774 54.5218L212.302 54.6376ZM222.971 42.8745L222.332 42.9683L225.743 66.1911L226.382 66.0973L222.971 42.8745ZM241.556 70.2339L235.933 51.1666L213.42 57.8051L219.042 76.8724L241.556 70.2339ZM218.645 65.0633L218.563 73.4392L242.034 73.6671L242.116 65.2912L218.645 65.0633ZM230.371 53.4233L229.722 53.4598L231.039 76.8947L231.688 76.8582L230.371 53.4233ZM245.743 88.7023L242.678 63.7122L219.381 66.5693L222.446 91.5594L245.743 88.7023ZM239.113 77.9104L233.07 78.4397L235.119 101.822L241.161 101.293L239.113 77.9104ZM227.128 78.091L228.465 90.8269L251.809 88.3763L250.472 75.6405L227.128 78.091ZM245.121 64.3997L237.572 65.1942L240.028 88.5372L247.578 87.7427L245.121 64.3997ZM258.374 78.2083L258.021 74.846L234.678 77.2965L235.031 80.6588L258.374 78.2083ZM250.341 67.25L245.474 67.7621L247.931 91.1051L252.797 90.593L250.341 67.25ZM264.247 87.2868L263.241 77.6962L239.897 80.1468L240.904 89.7373L264.247 87.2868ZM255.042 76.5151L251.552 76.8209L253.6 100.203L257.09 99.8975L255.042 76.5151ZM244.085 86.6872C244.085 88.4928 244.379 90.2535 244.93 91.9102L267.202 84.5024C267.436 85.2041 267.557 85.9433 267.557 86.6872H244.085ZM253.055 71.9769C247.753 74.7091 244.085 80.2599 244.085 86.6872H267.557C267.557 89.3875 266.009 91.7063 263.807 92.8413L253.055 71.9769ZM246.695 69.8852V82.4091H270.167V69.8852H246.695ZM243.967 65.5479C243.967 72.1383 247.821 77.8057 253.345 80.462L263.516 59.3083C265.813 60.4126 267.439 62.7789 267.439 65.5479H243.967ZM253.345 50.6338C247.821 53.2902 243.967 58.9575 243.967 65.5479H267.439C267.439 68.3169 265.813 70.6833 263.516 71.7875L253.345 50.6338ZM246.695 48.568V61.2107H270.167V48.568H246.695ZM244.085 44.2899C244.085 50.7172 247.753 56.268 253.055 59.0002L263.807 38.1358C266.009 39.2708 267.557 41.5896 267.557 44.2899H244.085ZM253.055 29.5795C247.753 32.3117 244.085 37.8625 244.085 44.2899H267.557C267.557 46.9901 266.009 49.3089 263.807 50.4439L253.055 29.5795ZM246.695 31.1605V40.0117H270.167V31.1605H246.695ZM263.65 14.2055C254.286 14.2055 246.695 21.7965 246.695 31.1605H270.167C270.167 34.7597 267.249 37.6773 263.65 37.6773V14.2055ZM215.499 95.4755C215.499 95.6773 215.475 95.8573 215.435 96.0191L238.231 101.612C238.716 99.6337 238.971 97.5762 238.971 95.4755H215.499ZM215.075 94.1649C215.343 94.5302 215.499 94.9668 215.499 95.4755H238.971C238.971 89.8065 237.122 84.5342 233.996 80.2761L215.075 94.1649ZM210.848 72.0256L212.887 88.649L236.184 85.7919L234.145 69.1685L210.848 72.0256ZM235.466 73.441L233.805 67.4577L211.189 73.7364L212.85 79.7198L235.466 73.441ZM223.185 64.867L222.545 64.9558L225.771 88.205L226.411 88.1162L223.185 64.867ZM212.965 56.9327L213.062 76.5495L236.534 76.4336L236.437 56.8168L212.965 56.9327ZM241.548 72.5123L235.958 53.5555L213.444 60.194L219.034 79.1509L241.548 72.5123ZM229.309 64.119L228.671 64.2081L231.911 87.4551L232.55 87.3661L229.309 64.119ZM219.249 70.0114L219.194 75.6286L242.665 75.8565L242.72 70.2393L219.249 70.0114ZM245.093 88.7593L242.633 68.6968L219.336 71.5539L221.796 91.6164L245.093 88.7593ZM228.316 102.418L234.469 101.879L232.42 78.4966L226.268 79.0355L228.316 102.418ZM239.678 97.6522L238.984 89.7051L215.601 91.7484L216.295 99.6954L239.678 97.6522ZM228.265 110.464L229.419 110.322L226.555 87.0255L225.401 87.1674L228.265 110.464ZM310.797 52.9411L308.043 52.3316L302.971 75.2492L305.726 75.8586L310.797 52.9411ZM317.738 75.7583L319.712 66.9718L296.811 61.828L294.837 70.6146L317.738 75.7583ZM301.011 84.0424L303.767 84.6484L308.809 61.7244L306.053 61.1184L301.011 84.0424ZM294.056 61.2182L292.082 70.0082L314.983 75.1527L316.958 66.3626L294.056 61.2182ZM307.124 52.1284L304.37 51.5189L299.299 74.4364L302.053 75.0459L307.124 52.1284ZM314.065 74.9501L316.039 66.159L293.138 61.0153L291.163 69.8064L314.065 74.9501ZM297.338 83.2343L300.093 83.8403L305.135 60.9163L302.379 60.3103L297.338 83.2343ZM290.384 60.4054L288.408 69.2L311.309 74.3445L313.285 65.55L290.384 60.4054ZM303.854 60.0551L307.375 60.9169L312.955 38.1179L309.435 37.2562L303.854 60.0551ZM317.163 42.9842L315.74 41.2393L297.549 56.072L298.972 57.8169L317.163 42.9842ZM310.796 38.9846L310.612 38.9438L305.523 61.8573L305.706 61.8981L310.796 38.9846ZM305.064 38.9481L303.15 39.8721L313.352 61.0107L315.267 60.0867L305.064 38.9481ZM500.118 249.441C500.118 270.85 482.762 288.205 461.354 288.205V311.677C495.725 311.677 523.589 283.813 523.589 249.441H500.118ZM461.354 210.677C482.762 210.677 500.118 228.033 500.118 249.441H523.589C523.589 215.069 495.725 187.205 461.354 187.205V210.677ZM422.589 249.441C422.589 228.033 439.945 210.677 461.354 210.677V187.205C426.982 187.205 399.118 215.069 399.118 249.441H422.589ZM461.354 288.205C439.945 288.205 422.589 270.85 422.589 249.441H399.118C399.118 283.813 426.982 311.677 461.354 311.677V288.205ZM67.6748 141.895C53.9224 144.345 40.6255 152.327 34.6073 164.603L55.6827 174.935C57.5405 171.146 63.224 166.529 71.7923 165.002L67.6748 141.895ZM99.9512 143.171C94.8775 142.222 88.6867 141.616 83.0966 141.365C77.7542 141.125 71.8291 141.154 67.6733 141.895L71.7937 165.002C73.2253 164.747 76.9459 164.585 82.0446 164.813C86.8954 165.031 91.9411 165.552 95.6361 166.243L99.9512 143.171ZM113.175 144.393C109.323 144.355 103.169 143.773 99.9508 143.171L95.6365 166.243C100.336 167.122 107.867 167.814 112.944 167.864L113.175 144.393ZM116.67 144.936C116.42 145.12 116.664 144.914 117.167 144.683C117.735 144.423 118.186 144.33 118.304 144.311C118.315 144.309 118.017 144.356 117.087 144.383C116.176 144.409 114.95 144.411 113.176 144.393L112.943 167.864C116.259 167.897 119.443 167.911 122.114 167.471C125.872 166.853 128.416 165.433 130.574 163.846L116.67 144.936ZM139.606 148.589C138.78 147.048 137.363 144.982 134.977 143.348C132.39 141.576 129.446 140.852 126.617 140.981C121.937 141.193 118.327 143.717 116.668 144.938L130.576 163.845C130.974 163.552 130.986 163.588 130.686 163.732C130.426 163.857 129.346 164.353 127.682 164.428C125.761 164.516 123.608 164.01 121.717 162.715C120.028 161.559 119.214 160.228 118.92 159.68L139.606 148.589ZM132.013 178.369C136.578 174.888 139.505 169.95 140.902 165.182C142.25 160.583 142.672 154.309 139.607 148.591L118.919 159.678C118.492 158.881 118.459 158.319 118.456 158.237C118.452 158.143 118.468 158.274 118.377 158.583C118.29 158.881 118.15 159.184 117.989 159.431C117.826 159.681 117.725 159.746 117.782 159.703L132.013 178.369ZM102.427 181.973C107.557 183.224 112.764 183.755 117.612 183.377C122.278 183.013 127.616 181.721 132.013 178.369L117.782 159.703C118.28 159.323 117.918 159.81 115.787 159.976C113.837 160.128 111.148 159.94 107.987 159.169L102.427 181.973ZM107.689 177.75C106.255 179.211 104.773 179.956 103.932 180.314C103.033 180.696 102.266 180.888 101.793 180.988C100.87 181.182 100.143 181.214 99.8545 181.222C99.2261 181.242 98.7913 181.197 98.7655 181.195C98.6228 181.181 98.7065 181.184 99.1177 181.256C99.8674 181.389 101.042 181.635 102.425 181.973L107.989 159.17C106.264 158.749 104.578 158.386 103.202 158.142C102.55 158.027 101.754 157.901 100.976 157.827C100.632 157.794 99.9402 157.737 99.1235 157.762C98.7412 157.774 97.9363 157.813 96.9545 158.02C96.4989 158.116 93.5141 158.684 90.9374 161.309L107.689 177.75ZM105.942 194.018C105.942 194.921 105.818 195.596 105.875 195.202C105.887 195.117 105.918 194.925 105.975 194.596C106.086 193.952 106.257 193.035 106.476 191.899C106.913 189.642 107.505 186.717 108.114 183.798C108.723 180.878 109.337 178.018 109.815 175.89C110.056 174.814 110.248 173.993 110.38 173.463C110.45 173.18 110.475 173.094 110.465 173.131C110.459 173.149 110.445 173.197 110.423 173.267C110.403 173.331 110.361 173.459 110.3 173.627C110.252 173.762 110.124 174.107 109.921 174.541C109.91 174.565 109.21 176.204 107.678 177.761L90.948 161.298C89.4048 162.866 88.6917 164.528 88.6652 164.585C88.4465 165.052 88.3016 165.441 88.2333 165.629C88.0874 166.032 87.9824 166.384 87.9286 166.569C87.8088 166.98 87.6954 167.421 87.6016 167.799C87.4049 168.59 87.167 169.617 86.913 170.748C86.3997 173.034 85.7593 176.02 85.1364 179.006C84.5133 181.995 83.8964 185.039 83.4314 187.443C83.2004 188.638 82.9971 189.725 82.8476 190.587C82.7741 191.012 82.702 191.448 82.6445 191.846C82.6316 191.935 82.4705 192.946 82.4705 194.018H105.942ZM104.192 182.698C100.212 182.907 98.0556 182.953 96.9894 182.913C96.3092 182.888 96.8554 182.848 97.8501 183.12C98.295 183.241 99.8848 183.693 101.577 185.019C102.507 185.748 103.638 186.874 104.533 188.509C105.465 190.211 105.942 192.109 105.942 194.018H82.4705C82.4705 198.506 84.859 201.739 87.0997 203.495C88.971 204.961 90.8341 205.535 91.6564 205.76C93.406 206.238 95.1229 206.331 96.1068 206.368C98.3688 206.454 101.513 206.343 105.426 206.137L104.192 182.698ZM125.147 186.999C124.141 185.992 122.568 184.652 120.242 183.692C118.169 182.836 116.208 182.58 114.783 182.476C112.221 182.289 108.666 182.462 104.191 182.698L105.426 206.137C107.816 206.011 109.559 205.929 110.882 205.891C112.255 205.851 112.86 205.87 113.076 205.886C113.302 205.902 112.476 205.879 111.286 205.388C110.648 205.125 110.047 204.787 109.509 204.401C109.002 204.037 108.668 203.714 108.545 203.591L125.147 186.999ZM123.254 211.441C125.582 209.087 128.091 205.774 129.123 201.57C130.309 196.738 129.325 191.179 125.147 186.999L108.545 203.591C107.593 202.639 106.768 201.312 106.369 199.708C105.983 198.154 106.116 196.835 106.328 195.975C106.695 194.478 107.307 194.186 106.56 194.942L123.254 211.441ZM103.241 217.93C107.615 217.622 111.45 217.375 114.283 216.687C116.119 216.242 118.004 215.531 119.862 214.308C121.506 213.225 122.709 211.993 123.255 211.441L106.56 194.942C106.007 195.502 106.326 195.118 106.953 194.705C107.796 194.15 108.534 193.929 108.748 193.877C108.763 193.874 108.38 193.961 107.053 194.091C105.782 194.215 104.077 194.341 101.593 194.516L103.241 217.93ZM100.652 215.13C100.022 215.865 99.41 216.395 98.9559 216.748C98.4915 217.11 98.0725 217.379 97.7533 217.568C97.1344 217.934 96.6106 218.165 96.3128 218.288C95.7224 218.531 95.2654 218.658 95.1236 218.696C94.799 218.785 94.6383 218.807 94.7957 218.779C95.0476 218.734 95.5947 218.652 96.474 218.547C98.1823 218.343 100.592 218.116 103.241 217.93L101.594 194.516C98.6623 194.722 95.8618 194.981 93.6895 195.241C92.6285 195.367 91.5677 195.512 90.6641 195.673C90.2437 195.748 89.6185 195.869 88.9572 196.049C88.6472 196.133 88.0539 196.304 87.3612 196.59C87.2337 196.642 84.8204 197.53 82.8189 199.868L100.652 215.13ZM100.159 224.19C100.868 220.431 101.56 216.976 102.099 214.459C102.372 213.187 102.588 212.231 102.738 211.621C102.818 211.298 102.849 211.195 102.837 211.235C102.836 211.238 102.775 211.447 102.66 211.754C102.604 211.902 102.48 212.225 102.285 212.631C102.181 212.846 101.661 213.951 100.65 215.132L82.8205 199.866C81.7927 201.067 81.2543 202.203 81.1301 202.461C80.9144 202.91 80.7666 203.288 80.6859 203.503C80.5208 203.943 80.4017 204.332 80.3344 204.559C80.1899 205.045 80.0566 205.565 79.9451 206.018C79.7129 206.963 79.4395 208.182 79.1478 209.544C78.5587 212.294 77.8279 215.945 77.0933 219.844L100.159 224.19ZM94.468 244.203C95.4399 242.949 95.9445 241.758 96.0516 241.511C96.2566 241.039 96.4087 240.617 96.5067 240.332C96.7072 239.748 96.8829 239.144 97.0261 238.625C97.3212 237.553 97.6449 236.227 97.9732 234.793C98.6373 231.894 99.4162 228.134 100.159 224.19L77.0933 219.844C76.3936 223.557 75.6758 227.012 75.0937 229.554C74.799 230.84 74.5622 231.792 74.3975 232.389C74.3108 232.704 74.2818 232.783 74.3075 232.708C74.3181 232.677 74.3902 232.466 74.5233 232.159C74.5586 232.078 74.9995 231.006 75.9163 229.824L94.468 244.203ZM70.613 247.159C73.8603 248.636 77.446 249.462 80.6734 249.641C82.2825 249.729 84.2557 249.684 86.2951 249.227C87.9649 248.853 91.7064 247.766 94.4682 244.203L75.9161 229.824C77.0897 228.31 78.3979 227.469 79.2452 227.034C80.1019 226.593 80.8009 226.404 81.1667 226.322C81.865 226.166 82.1805 226.216 81.9672 226.204C81.55 226.181 80.8326 226.021 80.3333 225.794L70.613 247.159ZM55.2486 229.476C56.2488 234.038 59.0473 237.813 61.2608 240.217C63.6629 242.825 66.9061 245.473 70.6146 247.159L80.3316 225.793C80.3336 225.794 80.3169 225.787 80.282 225.768C80.2472 225.749 80.1984 225.722 80.1367 225.684C80.0108 225.607 79.8507 225.499 79.6644 225.357C79.2817 225.066 78.883 224.703 78.5271 224.317C78.1631 223.922 77.9491 223.616 77.8627 223.473C77.8238 223.409 77.8475 223.439 77.9021 223.565C77.9535 223.683 78.0738 223.983 78.176 224.449L55.2486 229.476ZM63.5604 182.224C60.1742 196.541 57.9097 206.561 56.5663 213.39C55.8977 216.79 55.4144 219.611 55.1445 221.88C54.9307 223.678 54.6287 226.651 55.2492 229.479L78.1754 224.446C78.4953 225.904 78.2301 226.518 78.4521 224.652C78.6181 223.256 78.9697 221.109 79.5969 217.921C80.8451 211.575 83.0156 201.945 86.4021 187.626L63.5604 182.224ZM69.2603 170.415C68.4388 169.08 68.0758 167.884 67.9164 167.278C67.7377 166.6 67.6564 166.038 67.6159 165.693C67.5366 165.015 67.5387 164.492 67.5416 164.281C67.5451 164.023 67.5578 163.83 67.5647 163.737C67.5724 163.633 67.5796 163.565 67.5821 163.542C67.5858 163.508 67.5665 163.676 67.4863 164.149C67.3351 165.04 67.0701 166.419 66.6937 168.238C65.9482 171.841 64.8443 176.795 63.5604 182.224L86.4021 187.626C87.7217 182.047 88.877 176.869 89.6788 172.993C90.0761 171.073 90.4067 169.376 90.6273 168.076C90.733 167.453 90.8436 166.747 90.9155 166.088C90.9481 165.789 91.0026 165.24 91.0113 164.602C91.0154 164.299 91.0148 163.699 90.9285 162.963C90.8938 162.666 90.6853 160.446 89.251 158.115L69.2603 170.415ZM74.1827 176.118C73.8173 176.307 73.8664 176.23 74.5465 176.05C75.1172 175.898 75.8041 175.761 76.4519 175.673C77.1707 175.574 77.4614 175.586 77.3253 175.581C77.3055 175.581 76.6762 175.567 75.7491 175.323C75.2747 175.198 74.3819 174.925 73.3395 174.342C72.3298 173.777 70.6089 172.602 69.267 170.426L89.2443 158.104C86.6368 153.876 82.4861 152.825 81.7391 152.628C80.2995 152.248 78.9998 152.155 78.1926 152.126C76.4817 152.062 74.7298 152.217 73.2655 152.418C70.6138 152.781 66.582 153.618 63.3712 155.284L74.1827 176.118ZM73.6963 182.09C72.7011 180.621 72.5464 179.163 72.7666 178.108C72.979 177.091 73.5014 176.471 74.182 176.118L63.3719 155.284C48.1781 163.167 45.3828 182.15 54.2661 195.258L73.6963 182.09ZM78.0494 193.386C78.0353 191.154 77.4044 189.348 77.2027 188.774C76.8902 187.883 76.5207 187.054 76.1825 186.36C75.4994 184.958 74.6318 183.47 73.6955 182.089L54.2669 195.259C54.6284 195.792 54.9247 196.318 55.0822 196.642C55.1642 196.81 55.1343 196.771 55.0567 196.551C55.017 196.437 54.9255 196.166 54.8342 195.773C54.7871 195.57 54.729 195.288 54.6803 194.943C54.6327 194.606 54.5817 194.123 54.578 193.534L78.0494 193.386ZM43.236 204.469C48.8382 208.186 55.7407 209.276 61.1087 208.878C63.8259 208.676 67.2445 208.023 70.387 206.226C73.6476 204.362 78.0894 200.205 78.0494 193.391L54.578 193.529C54.5661 191.498 55.228 189.628 56.2444 188.18C57.1763 186.852 58.2008 186.156 58.7369 185.849C59.6931 185.303 60.069 185.419 59.3731 185.47C58.8398 185.51 58.099 185.47 57.3578 185.305C57.0066 185.227 56.7197 185.135 56.506 185.049C56.2892 184.962 56.2012 184.903 56.2134 184.911L43.236 204.469ZM34.6075 164.602C31.2535 171.443 30.4116 179.105 31.6778 185.995C32.9257 192.785 36.4853 199.99 43.2366 204.469L56.2129 184.911C56.1061 184.84 55.1857 184.051 54.7631 181.752C54.3589 179.553 54.6561 177.029 55.6825 174.936L34.6075 164.602Z" fill="url(#paint0_linear_34_80)"/>
    </g>
    <circle cx="263.354" cy="244.441" r="147.5" fill="white"/>
    <path fill-rule="evenodd" clip-rule="evenodd" d="M263.65 25.9414C266.533 25.9414 268.869 28.2781 268.869 31.1605V40.2147C270.223 41.0657 271.123 42.5727 271.123 44.2899C271.123 46.007 270.223 47.514 268.869 48.365V61.5498C270.157 62.4129 271.004 63.8814 271.004 65.5479C271.004 67.2144 270.157 68.683 268.869 69.5461V82.6121C270.223 83.4631 271.123 84.9701 271.123 86.6872C271.123 86.7251 271.122 86.7628 271.122 86.8004L271.12 86.8407L271.119 86.8878L272.473 86.7691L273.596 76.0712L281.146 76.8657L280.77 80.4444L289.458 81.5124L288.504 89.2925L290.926 89.1443L293.679 76.7615L292.304 76.4559L298.415 74.9262L298.744 73.4492L297.151 73.0989L298.022 71.3683L298.94 71.5705L300.916 62.7746L299.682 62.5016L304.744 60.5415L303.816 59.0854L304.226 57.2507L305.91 56.1797L306.369 56.2811L307.598 50.778L303.828 46.0938L302.451 45.7891L302.86 43.9545L303.574 45.0748L304.696 44.3605L305.409 45.481L306.532 44.7671L306.122 46.6013L304.745 46.2967L306.619 48.6245L307 46.7253L307.736 47.914L308.857 47.1794L309.592 48.3683L310.713 47.6337L310.354 49.4261L313.007 48.1246L311.63 47.82L312.039 45.9854L312.752 47.1057L313.875 46.3918L314.588 47.5122L315.711 46.798L315.301 48.6322L313.924 48.3279L308.516 50.9809L307.287 56.4844L307.746 56.5859L308.816 58.2662L308.406 60.1007L306.946 61.0291L310.697 64.9389L309.18 64.6031L307.206 73.3886L308.125 73.5903L308.172 75.5231L306.997 75.2645L306.664 76.7595L311.552 80.7332L310.177 80.4277L307.424 92.8105L325.39 101.588L325.797 108.453C376.027 132.013 410.854 183.099 410.854 242.263C410.854 278.918 397.486 312.471 375.37 338.3L314.924 336.236L396.092 285.603L300.43 282.337L381.68 231.653L285.631 228.374L299.895 281.608L204.886 278.364L219.395 332.509L300.052 282.195L300.087 282.325L300.043 282.324L314.379 335.826L219.291 332.579L233.799 386.724L314.524 336.369L314.551 336.468L314.617 336.427L325.302 376.304C306.462 385.056 285.472 389.941 263.351 389.941C181.945 389.941 115.854 323.769 115.854 242.263C115.854 181.53 152.549 129.311 204.933 106.638C201.549 104.092 199.36 100.04 199.36 95.4755C199.36 87.7687 205.6 81.5212 213.297 81.5212C217.465 81.5212 221.206 83.3531 223.76 86.2568L221.317 66.3345L221.955 66.2076L224.134 74.0569L224.038 54.5797L224.677 54.4859L230.299 73.5531L230.38 65.1772L231.03 65.1407L234.094 90.1309L240.137 89.6016L238.8 76.8657L246.35 76.0712L246.703 79.4336L251.569 78.9215L252.576 88.512L256.066 88.2063C255.907 87.7288 255.821 87.2181 255.821 86.6872C255.821 84.8237 256.881 83.2077 258.431 82.4091V69.8852C256.817 69.1091 255.703 67.4586 255.703 65.5479C255.703 63.6372 256.817 61.9867 258.431 61.2107V48.568C256.881 47.7694 255.821 46.1534 255.821 44.2899C255.821 42.4263 256.881 40.8103 258.431 40.0117V31.1605C258.431 28.2781 260.768 25.9414 263.65 25.9414ZM226.833 98.8157C227.095 97.7455 227.235 96.6268 227.235 95.4755C227.235 92.3867 226.232 89.5322 224.535 87.2205L222.497 70.5971L224.158 76.5804L224.798 76.4916L224.701 56.8748L230.291 75.8316L230.93 75.7426L230.984 70.1254L233.445 90.1878L227.292 90.7267L227.987 98.6738L226.833 98.8157ZM305.507 63.7904L308.261 64.3999L306.288 73.1864L303.532 72.5804L305.507 63.7904ZM301.834 62.9777L304.588 63.5872L302.614 72.3783L299.859 71.7723L301.834 62.9777ZM310.165 49.5174L306.644 48.6556L308.067 50.4005L308.251 50.4414L310.165 49.5174Z" fill="url(#paint1_linear_34_80)"/>
    <circle cx="461.354" cy="249.441" r="50.5" fill="#A894FF"/>
    <path fill-rule="evenodd" clip-rule="evenodd" d="M455.498 216.623C452.219 217.673 450.396 218.791 448.292 221.044C443.204 226.494 442.903 232.836 447.311 241.72L448.834 244.789L445.819 245.758C444.179 246.286 441.549 247.543 440.053 248.514C431.202 254.264 431.961 266.38 441.481 271.321C446.477 273.914 456.82 274.827 463.379 273.255L466.447 272.519L467.955 275.831C468.779 277.641 469.702 280.704 469.991 282.588C470.28 284.473 470.831 286.252 471.207 286.514C473.414 288.056 479.081 285.226 481.875 281.188C484.338 277.629 484.434 273.65 482.18 268.696L480.464 264.927L483.001 262.073C488.219 256.204 490.365 248.266 487.717 244.628C485.327 241.343 481.27 239.661 479.67 241.289C479.325 241.64 479.036 243.066 479.036 244.412C479.036 247.342 477.893 252.435 476.498 255.72L475.492 258.089L470.123 251.17C467.157 247.347 464.766 244.106 464.781 243.928C464.795 243.751 466.606 242.515 468.774 241.202C475.862 236.909 479.113 232.117 478.249 227.236C477.405 222.47 473.323 218.357 467.769 216.679C464.596 215.719 458.409 215.692 455.498 216.623ZM466.015 224.735C467.532 226.626 467.692 228.795 466.565 232.16C465.777 234.511 462.553 239.105 461.692 239.105C461.038 239.105 458.822 234.35 458.131 231.466C456.622 225.163 462.401 220.229 466.015 224.735ZM461.923 267.365C460.215 267.994 455.385 266.982 453.084 265.512C450.953 264.151 449.214 260.864 449.214 258.199C449.214 256.023 450.356 252.799 451.662 251.29C452.462 250.366 452.806 250.774 457.843 258.607C463.126 266.821 463.166 266.907 461.923 267.365V267.365Z" fill="white"/>
    <path fill-rule="evenodd" clip-rule="evenodd" d="M150.669 150.244C139.185 155.497 129.663 174.996 127.102 198.502C125.183 216.112 129.812 228.731 140.115 233.983C149.668 238.85 162.663 236.815 173.137 228.81C175.616 226.915 177.258 226.117 177.46 226.71C178.148 228.737 182.012 232.525 184.891 233.995C195.618 239.471 205.18 236.352 211.368 225.355L213.835 220.973L214.802 224.24C217.777 234.28 227.969 239.073 237.342 234.84C239.168 234.016 242.379 231.778 244.378 229.937L248.056 226.551L250.849 229.818C258.759 239.07 274.362 238.96 285.956 229.57L290.273 226.072L292.001 228.861C298.232 238.927 316.179 239.07 328.733 229.156L331.931 226.63L336.009 230.3C342.859 236.466 354.798 238.811 365.193 236.032C370.55 234.6 377.867 231.256 381.264 228.686L383.982 226.63L386.727 229.818C390.227 233.881 395.576 236.521 399.654 236.195L402.692 235.953L404.473 225.594C406.212 215.475 409.381 203.754 411.475 199.697C413.079 196.59 416.733 193.323 418.604 193.323C419.519 193.323 421.482 194.055 422.921 194.935C426.519 197.132 428.27 196.43 429.926 192.127C432.898 184.398 428.323 176.108 421.962 177.699C418.586 178.543 413.577 183.681 410.69 189.259L407.969 194.518L408.409 190.135C408.785 186.39 408.582 185.416 407.016 183.442C403.728 179.298 393.165 175.624 392.354 178.342C392.021 179.458 385.502 215.771 385.502 216.51C385.502 217.556 378.306 221.948 373.988 223.537C367.751 225.833 359.465 225.978 355.758 223.856C353.119 222.346 348.949 215.586 349.8 214.2C350.047 213.798 352 213.274 354.239 213.008C360.395 212.277 369.695 208.049 374.388 203.848C383.103 196.046 383.864 187.261 376.387 180.771C372.429 177.336 368.471 176.203 360.555 176.239C354.399 176.267 353.102 176.553 348.162 178.971C335.023 185.404 327.038 199.458 328.103 214.279L328.493 219.698L324.415 222.042C319.458 224.892 314.349 225.205 311.942 222.805C309.777 220.648 309.851 217.068 312.353 202.885C312.587 201.557 312.797 200.346 312.988 199.243C314.34 191.456 314.766 189.006 316.171 188.134C316.816 187.734 317.667 187.667 318.91 187.568C319.293 187.538 319.714 187.505 320.177 187.458C325.614 186.907 330.659 184.177 331.573 181.29C332.454 178.511 330.092 177.386 323.375 177.386C320.177 177.386 317.539 177.278 317.539 177.147C317.539 177.015 317.918 174.876 318.378 172.406C319.062 168.74 318.995 167.474 318.023 165.593C316.752 163.133 309.463 158.819 304.985 157.876C299.891 156.803 299.547 157.306 297.958 168.143L296.51 178.023L293.232 178.382C291.393 178.583 289.093 178.426 287.995 178.023C286.918 177.629 283.677 177.396 280.799 177.506C277.92 177.615 275.61 177.561 275.67 177.386C276.515 174.916 276.782 167.289 276.079 165.752C274.11 161.449 260.89 155.833 258.131 158.128C257.508 158.646 256.764 161.091 256.452 163.641C256.145 166.153 255.513 170.454 255.053 173.163C254.227 178.023 254.167 178.107 251.375 178.342C249.775 178.477 248.184 179.138 247.728 179.856C246.599 181.638 247.657 184.993 250.055 187.236L252.134 189.179L247.097 217.626L243.419 221.067C239.741 224.507 236.947 225.749 234.784 224.905C232.957 224.193 233.223 219.777 236.04 204.08C237.412 196.43 238.323 189.272 238.059 188.223C236.367 181.53 221.726 174.179 219.331 178.82C218.944 179.571 218.386 182.486 218.08 185.354C216.907 196.351 211.436 213.498 207.402 218.821C204.565 222.566 203.222 223.534 200.802 223.579C196.017 223.668 195.821 220.973 199.32 203.283C201.006 194.757 201.645 189.742 201.248 188.143C200.021 183.195 190.488 176.917 185.131 177.529L182.892 177.784L180.716 190.534C180.495 191.827 180.286 193.057 180.087 194.225C176.832 213.321 176.34 216.21 174.672 218.008C174.374 218.328 174.04 218.614 173.645 218.951C173.51 219.066 173.367 219.188 173.217 219.319C168.274 223.629 163.542 225.422 158.105 225.045C154.028 224.762 153.089 224.383 151.184 222.248C149.265 220.096 146.55 213.424 147.391 212.927C151.28 210.626 158.118 204.319 162.08 199.379C178.441 178.98 180.435 159.868 167.06 151.655C162.183 148.66 155.406 148.076 150.669 150.244ZM164.663 164.477C164.982 171.117 162.653 179.537 157.676 189.737C155.537 194.119 152.312 199.319 150.509 201.291L147.231 204.877L147.716 200.494C149.197 187.107 154.589 168.493 158.841 162.087C160.374 159.776 161.355 159.041 162.663 159.218C164.227 159.431 164.449 160.015 164.663 164.477ZM292.312 187.346L294.271 188.94L291.873 202.486C289.643 215.076 289.295 216.218 286.936 218.662C283.613 222.104 278.68 224.399 274.602 224.399C270.844 224.399 269.119 223.119 268.374 219.777C267.838 217.372 269.502 205.036 271.781 194.518L273.163 188.143L277.72 187.572C282.598 186.96 286.188 185.483 287.949 183.362C288.954 182.152 289.142 182.207 289.714 183.88C290.054 184.874 291.273 186.501 292.312 187.346ZM366.152 184.717C368.466 187.023 366.38 194.359 361.914 199.618C359.276 202.725 353.062 206.869 351.04 206.869C349.791 206.869 349.774 206.47 350.829 201.928C353.625 189.896 361.958 180.537 366.152 184.717ZM69.7335 153.448C58.5732 155.437 49.083 161.736 45.145 169.769C40.7646 178.703 42.8667 190.14 49.7247 194.69C55.6237 198.604 66.3392 197.81 66.3137 193.46C66.3089 192.703 65.279 190.588 63.9812 188.674C58.4672 180.538 60.6889 169.897 68.7769 165.701C71.6467 164.212 78.6323 163.254 79.2557 164.265C79.4996 164.661 77.5848 173.917 74.9813 184.925C68.2086 213.561 66.1112 224.224 66.7123 226.962C67.4218 230.199 71.567 234.7 75.4731 236.476C79.2198 238.181 84.0793 238.449 85.1921 237.013C85.633 236.444 87.1834 229.675 88.6263 222.017C90.0692 214.359 91.473 207.805 91.7353 207.499C91.9967 207.194 96.8371 206.615 102.417 206.223C112.222 205.533 112.71 205.415 114.907 203.192C117.982 200.081 118.701 197.151 116.846 195.295C115.551 193.999 114.375 193.913 104.809 194.417C96.9168 194.833 94.2065 194.731 94.2065 194.018C94.2065 192.662 98.9544 169.894 99.3131 169.53C99.4877 169.352 102.098 169.813 105.207 170.571C113.498 172.593 120.999 172.008 124.897 169.036C129.441 165.572 131.545 158.392 129.263 154.134C128.198 152.148 126.571 152.222 123.622 154.391C121.43 156.003 120.234 156.2 113.059 156.129C108.595 156.085 101.752 155.447 97.7937 154.707C89.0249 153.067 75.3209 152.452 69.7335 153.448Z" fill="#3D8EF2"/>
    <path fill-rule="evenodd" clip-rule="evenodd" d="M337.269 245.641C338.375 238.717 338.964 235.318 339.343 233.65L339.732 231.941H347.07C351.102 231.941 354.614 232.021 354.867 232.118C355.209 232.25 355.266 232.457 355.089 232.928C354.958 233.28 354.688 234.74 354.482 236.213C354.276 237.686 353.979 239.388 353.815 240.043C353.652 240.689 353.257 242.753 352.94 244.609C352.623 246.465 352.107 249.529 351.799 251.385C351.49 253.241 351.155 255.04 351.057 255.363C350.96 255.687 350.616 257.543 350.293 259.487C348.924 267.736 348.557 269.841 348.391 270.387C348.292 270.71 347.957 272.509 347.648 274.365C347.338 276.228 346.804 279.343 346.46 281.288C345.497 286.738 345.429 287.795 345.985 288.653C346.414 289.315 346.655 289.39 348.374 289.39C349.412 289.39 350.646 289.255 351.072 289.095L351.858 288.8L351.744 293.838C351.734 294.303 351.727 294.727 351.721 295.115C351.69 297.132 351.673 298.178 351.199 298.939C350.688 299.761 349.642 300.25 347.469 301.267C347.082 301.448 346.658 301.647 346.195 301.867C345.761 302.073 343.853 302.199 341.304 302.19C337.924 302.178 336.953 302.079 336.234 301.675C335.73 301.391 335.203 301.173 335.019 301.172C333.882 301.164 330.749 297.491 330.749 296.165C330.749 295.841 330.663 295.576 330.557 295.576C330.451 295.576 329.64 296.372 328.755 297.344C326.81 299.481 325.294 300.524 322.745 301.481C321.017 302.13 320.373 302.203 316.519 302.19C312.783 302.177 311.952 302.084 310.174 301.482C307.18 300.466 304.366 298.414 303.895 296.902C303.794 296.578 303.546 296.114 303.344 295.871C301.906 294.143 301.956 286.355 303.449 279.52C303.626 278.71 303.955 276.987 304.18 275.69C304.855 271.802 305.495 269.688 306.784 267.088C307.455 265.733 308.158 264.453 308.336 264.26C308.518 264.062 309.103 263.346 309.659 262.639C311.457 260.354 314.71 258.334 318.594 257.092C319.779 256.713 321.485 256.538 324.835 256.453C329.193 256.341 329.564 256.377 331.624 257.101C332.81 257.518 334.026 258.068 334.292 258.309C334.735 258.709 334.815 258.618 335.137 257.351C335.334 256.575 335.691 254.626 335.938 252.976C336.184 251.326 336.455 249.81 336.545 249.574C336.634 249.34 336.963 247.556 337.269 245.641ZM331.935 275.396C332.133 273.923 332.409 272.522 332.557 272.243C332.927 271.546 331.846 270.075 330.66 269.662C329.64 269.306 325.62 269.292 324.464 269.64C322.265 270.303 320.442 272.568 319.691 275.573C319.071 278.047 318.298 283.105 318.298 284.676C318.298 286.208 318.916 287.386 320.254 288.406C321.262 289.174 321.559 289.242 323.901 289.242C326.095 289.242 326.616 289.142 327.636 288.525C329.747 287.25 330.055 286.738 330.435 283.88C330.622 282.466 330.961 280.551 331.179 279.668C331.402 278.767 331.737 276.869 331.935 275.396ZM147.189 257.742C147.337 257.742 148.017 257.481 148.728 257.151C149.422 256.828 150.593 256.442 151.303 256.301C155.447 255.479 160.353 256.495 162.877 258.698C164.117 259.78 165.146 261.852 165.692 264.365C166.171 266.571 166.17 266.79 165.663 269.391C165.202 271.757 163.704 275.963 163.173 276.378C163.077 276.454 162.76 276.887 162.478 277.33L161.96 278.143H155.151C150.8 278.143 148.343 278.036 148.343 277.847C148.343 277.67 148.456 277.552 148.624 277.552C148.78 277.552 149.257 276.813 149.694 275.896C150.988 273.176 150.328 270.343 148.225 269.587C146.093 268.822 143.87 269.379 142.097 271.124C140.958 272.244 140.933 272.319 140.22 276.665C139.967 278.202 139.618 280.076 139.448 280.804C139.277 281.536 138.873 283.731 138.549 285.683C137.643 291.152 136.886 295.51 136.392 298.101C136.143 299.402 135.934 300.632 135.925 300.835C135.914 301.122 134.149 301.205 128.111 301.205H120.311L120.577 299.801C120.723 299.031 121.098 296.859 121.406 294.996C121.714 293.133 122.049 291.329 122.147 291.005C122.313 290.458 122.662 288.432 123.931 280.656C124.173 279.178 124.504 277.404 124.677 276.665C124.848 275.933 125.253 273.738 125.578 271.786C126.167 268.243 126.956 263.626 127.659 259.605L128.037 257.447H135.23C135.913 257.447 136.534 257.445 137.099 257.443H137.099H137.1H137.1C140.7 257.431 141.994 257.427 142.314 257.983C142.493 258.296 142.364 258.785 142.164 259.548C142.108 259.762 142.046 259.997 141.984 260.255C141.259 263.271 141.367 263.311 143.671 260.876C144.846 259.634 145.976 258.629 146.197 258.629C146.41 258.629 146.673 258.422 146.759 258.186C146.846 257.949 147.047 257.742 147.189 257.742ZM218.763 256.168C217.639 256.3 216.37 256.533 215.939 256.687C215.5 256.844 214.505 257.137 213.677 257.352C211.873 257.821 208.472 259.54 206.699 260.88C204.182 262.783 201.965 265.792 200.279 269.599C199.862 270.538 198.754 275.856 198.038 280.342C197.794 281.877 197.439 283.88 197.255 284.769C196.844 286.747 196.99 292.778 197.462 293.358C197.652 293.591 197.89 294.066 198.008 294.45C198.617 296.426 200.608 298.46 203.328 299.886C206.241 301.413 209.064 301.963 214.712 302.105C219.768 302.232 220.435 302.171 224.883 301.181C228.343 300.411 233.022 297.77 234.877 295.542C236.138 294.027 236.711 293.151 237.598 291.38C238.648 289.285 239.724 285.725 239.402 285.413C239.304 285.319 235.898 285.188 231.847 285.123C225.312 285.019 224.47 285.056 224.47 285.448C224.47 286.171 223.198 287.892 222.104 288.648C221.248 289.241 220.744 289.344 218.704 289.344C215.983 289.344 214.874 288.955 213.817 287.632C213.145 286.791 213.088 286.481 213.115 283.795C213.137 281.641 213.254 280.804 213.559 280.608C213.786 280.462 220.167 280.342 227.737 280.342H241.501L242.048 277.022C242.35 275.192 242.648 272.251 242.713 270.47C242.815 267.696 242.737 266.944 242.166 265.158C241.798 264.006 241.133 262.536 240.678 261.867C239.349 259.914 236.534 257.855 234.464 257.323C233.754 257.141 232.931 256.876 232.601 256.724C230.894 255.936 223.346 255.633 218.763 256.168ZM226.229 269.703C227.008 270.685 227.131 271.075 227.131 272.58C227.131 273.554 226.974 274.478 226.776 274.676C226.332 275.118 214.842 275.201 214.57 274.764C214.471 274.604 214.682 273.82 215.03 273.052C216.854 269.039 220.393 267.196 224.233 268.263C224.915 268.452 225.667 268.994 226.229 269.703ZM274.681 257.112C275.187 256.992 275.723 256.792 275.917 256.65C276.103 256.514 277.063 256.282 278.017 256.144C281.531 255.633 286.085 255.951 287.786 256.825C288.293 257.086 288.822 257.285 289.008 257.285C289.602 257.285 291.665 259.293 292.316 260.504C293.621 262.931 293.868 267.621 292.95 272.494C292.795 273.313 292.419 275.418 292.105 277.219C291.792 279.021 291.338 281.521 291.087 282.831C290.092 288.029 290.547 289.18 293.595 289.18C294.548 289.18 295.72 289.039 296.156 288.87C296.603 288.698 297 288.599 297.048 288.649C297.179 288.781 296.424 298.885 296.275 298.991C294.751 300.084 293.327 300.821 291.51 301.455C289.437 302.178 289.008 302.224 285.553 302.101C282.902 302.006 281.572 301.828 280.936 301.481C280.429 301.205 279.9 300.993 279.714 300.991C279 300.986 275.759 298.272 275.733 297.656C275.727 297.521 275.546 297.243 275.311 297.007C274.334 296.025 274.169 290.362 274.99 285.932C275.247 284.545 275.702 282.033 276.006 280.32C276.311 278.608 276.725 276.294 276.933 275.152C277.374 272.73 277.16 271.353 276.154 270.132C275.447 269.272 275.351 269.246 272.968 269.246C270.823 269.246 270.336 269.349 269.14 270.061C267.187 271.223 266.889 271.667 266.522 273.971C266.34 275.108 265.854 277.899 265.44 280.173C264.64 284.576 263.965 288.472 262.932 294.644C262.576 296.77 262.137 299.043 261.947 299.738L261.605 300.994H246.205L246.384 300.034C246.483 299.503 246.747 297.952 246.976 296.564C247.461 293.617 248.297 288.885 249.351 283.126C249.767 280.852 250.362 277.463 250.673 275.595C250.983 273.735 251.323 271.865 251.425 271.461C251.598 270.774 252.078 268.035 253.339 260.533L253.86 257.432L268.336 257.285L268.143 258.688C268.037 259.455 267.868 260.591 267.77 261.198L267.592 262.305L269.111 260.845C270.928 259.099 273.464 257.399 274.681 257.112ZM376.67 256.624C376.27 256.784 375.462 257.012 374.902 257.121C373.812 257.334 369.542 259.028 369.294 259.346C369.216 259.445 368.831 259.689 368.419 259.9C367.623 260.306 367.358 260.526 365.766 262.094C364.442 263.399 364.287 263.606 363.321 265.352C361.563 268.533 361.053 273.074 362.077 276.447C362.526 277.927 362.953 278.622 364.146 279.82C365.22 280.899 365.727 281.408 366.318 281.783C366.846 282.118 367.441 282.347 368.566 282.78C370.567 283.55 373.134 284.004 380.766 284.937C384.421 285.383 385.984 285.878 386.287 286.684C386.38 286.932 386.374 287.572 386.274 288.134C386.018 289.563 384.951 290.166 382.299 290.381C377.79 290.746 374.317 289.829 373.906 288.164L373.723 287.424H366.724C362.864 287.424 359.415 287.51 359.033 287.616C358.354 287.805 358.343 287.868 358.458 290.797C358.557 293.312 358.699 294.02 359.352 295.265C361.338 299.05 364.558 300.814 371.513 301.928C373.438 302.237 382.829 302.226 384.922 301.913C396.179 300.231 401.698 295.303 401.714 286.921C401.718 284.968 401.577 284.172 400.992 282.838C399.759 280.027 396.546 277.375 393.762 276.871C393.203 276.769 392.596 276.589 392.436 276.477C392.273 276.362 391.022 276.109 389.637 275.91C378.438 274.304 376.556 273.533 377.076 270.766C377.471 268.667 379.617 267.601 383.448 267.601C387.603 267.601 389.218 268.534 388.922 270.766L388.753 272.039H403.37L404.096 270.618C405.075 268.708 405.112 264.612 404.17 262.541C403.055 260.088 400.334 258.008 397.034 257.085C396.12 256.83 394.923 256.493 394.352 256.331C392.934 255.928 382.652 255.74 379.764 256.064C378.468 256.209 377.075 256.461 376.67 256.624ZM170.588 282.306C172.386 272.64 172.964 269.501 173.324 267.458C173.535 266.255 174.017 263.542 174.396 261.417L175.085 257.559H190.843L190.678 258.506C190.587 259.031 190.374 260.034 190.199 260.762C190.026 261.482 189.615 263.644 189.285 265.566C188.012 272.989 187.614 275.19 187.419 275.901C187.308 276.301 186.949 278.201 186.619 280.122C186.289 282.044 185.878 284.447 185.705 285.464C185.418 287.153 185.441 287.38 185.975 288.084C186.485 288.758 186.799 288.867 188.446 288.943C189.495 288.992 190.733 288.895 191.233 288.725L192.131 288.419L191.922 293.281C191.731 297.706 191.655 298.203 191.083 298.813C190.727 299.191 190.323 299.482 190.154 299.482C189.996 299.482 189.615 299.688 189.345 299.919C189.063 300.161 187.847 300.693 186.619 301.113C184.597 301.803 184.073 301.86 180.657 301.76C174.786 301.588 171.847 300.223 170.239 296.92C168.853 294.072 168.92 291.272 170.588 282.306Z" fill="#236FCE"/>
    <path fill-rule="evenodd" clip-rule="evenodd" d="M95.6824 239.938C92.2287 243.956 88.8879 250.748 87.781 256.005L86.8608 260.374C86.8608 260.374 82.9515 281.771 75.8761 318.348C74.1575 327.233 74.3532 328.037 78.4208 328.799C83.5744 329.765 89.3965 325.686 92.0039 320.865C92.7613 319.465 102.77 272.001 102.77 272.001L119.768 271.52L122.593 257.261C122.593 257.261 117.625 257.261 113.592 257.261C108.289 257.261 106.188 257.261 106.188 257.261C106.188 257.261 106.461 254.87 107.053 251.192C107.805 246.519 107.791 242.769 113.114 242.769C118.437 242.769 116.091 248.863 116.091 248.863H131.104C131.104 248.863 134.582 238.084 122.115 233.396C119.318 232.344 112.928 231.46 109.044 232.237C104.413 233.164 98.6521 236.485 95.6824 239.938Z" fill="#236FCE"/>
    <defs>
        <filter id="filter0_d_34_80" x="0.118164" y="0.205078" width="554.472" height="451.473" filterUnits="userSpaceOnUse" color-interpolation-filters="sRGB">
            <feFlood flood-opacity="0" result="BackgroundImageFix"/>
            <feColorMatrix in="SourceAlpha" type="matrix" values="0 0 0 0 0 0 0 0 0 0 0 0 0 0 0 0 0 0 127 0" result="hardAlpha"/>
            <feOffset dy="17"/>
            <feGaussianBlur stdDeviation="15.5"/>
            <feColorMatrix type="matrix" values="0 0 0 0 0.492835 0 0 0 0 0.708217 0 0 0 0 0.80916 0 0 0 0.5 0"/>
            <feBlend mode="normal" in2="BackgroundImageFix" result="effect1_dropShadow_34_80"/>
            <feBlend mode="normal" in="SourceGraphic" in2="effect1_dropShadow_34_80" result="shape"/>
        </filter>
        <linearGradient id="paint0_linear_34_80" x1="-52.9986" y1="-98.7359" x2="-52.9986" y2="402.833" gradientUnits="userSpaceOnUse">
            <stop stop-color="#F4FDFF"/>
            <stop offset="1" stop-color="white"/>
        </linearGradient>
        <linearGradient id="paint1_linear_34_80" x1="409.45" y1="397.381" x2="409.45" y2="36.8431" gradientUnits="userSpaceOnUse">
            <stop stop-color="#D0EAFF"/>
            <stop offset="0.0293366" stop-color="#D6ECFF"/>
            <stop offset="0.363153" stop-color="#FFFCEB"/>
            <stop offset="1" stop-color="#FFBEBE"/>
        </linearGradient>
    </defs>
</svg>
